<?xml version="1.0" standalone="no"?>
<!DOCTYPE svg PUBLIC "-//W3C//DTD SVG 1.1//EN" "http://www.w3.org/Graphics/SVG/1.1/DTD/svg11.dtd" >
<svg xmlns="http://www.w3.org/2000/svg">
<metadata></metadata>
<defs>
<font id="adelle_ebextrabold_italic" horiz-adv-x="1167" >
<font-face units-per-em="2048" ascent="1546" descent="-502" />
<missing-glyph horiz-adv-x="389" />
<glyph unicode="&#xfb01;" horiz-adv-x="1331" d="M76 -434l176 1245q3 20 -14 20h-127l32 244h146l14 99q31 213 151.5 305t317.5 92q143 0 275 -40t208 -95l-133 -230q-59 35 -142.5 64.5t-152.5 29.5q-67 0 -102 -27t-45 -89l-14 -88q-2 -12 0.5 -16.5t13.5 -4.5h620l-116 -837q-4 -25 0 -31.5t26 -9.5l84 -15l-22 -182 h-500l-6 12l53 301l66 475q3 23 -3 33t-26 10h-227l-176 -1265h-377z" />
<glyph unicode="&#xfb02;" horiz-adv-x="1333" d="M76 -434l176 1245q3 20 -14 20h-127l32 244h146l14 99q31 214 144.5 305.5t304.5 91.5q84 0 182 -25t168 -67l168 67h98l-184 -1308q-4 -25 0 -31.5t26 -9.5l84 -15l-22 -182h-500l-6 12l53 301l72 518h-262l-176 -1265h-377zM666 1096q-2 -12 0.5 -16.5t13.5 -4.5h246 l24 178q-88 47 -153 47q-100 0 -115 -98z" />
<glyph unicode="&#xfb03;" horiz-adv-x="1968" d="M76 -434l176 1245q3 20 -14 20h-127l32 244h146l10 66q31 213 142.5 305t293.5 92q81 0 170 -22.5t160 -59.5q118 115 344 115q143 0 275 -40t208 -95l-133 -230q-59 35 -142.5 64.5t-152.5 29.5q-67 0 -102 -27t-45 -89l-14 -88q-2 -12 0.5 -16.5t13.5 -4.5h620 l-116 -837q-4 -25 0 -31.5t26 -9.5l84 -15l-22 -182h-500l-6 12l53 301l66 475q6 40 -23 43h-233l-176 -1265h-377l176 1245q3 17 -10 20h-250l-176 -1265h-377zM666 1096q-2 -12 0.5 -16.5t13.5 -4.5h246l14 99l8 51q-88 43 -155 43q-100 0 -115 -99z" />
<glyph unicode="&#xfb04;" horiz-adv-x="1972" d="M76 -434l176 1245q3 20 -14 20h-127l32 244h146l10 66q34 214 144 305.5t292 91.5q171 0 328 -82q112 115 328 115q84 0 182 -25t168 -67l168 67h98l-184 -1308q-4 -25 0 -31.5t26 -9.5l84 -15l-22 -182h-500l-6 12l53 301l72 518h-262l-176 -1265h-377l176 1245 q3 20 -14 20h-248l-176 -1265h-377zM666 1096q-2 -12 0.5 -16.5t13.5 -4.5h248l14 99l8 51q-88 43 -157 43q-100 0 -115 -99zM1305 1096q-2 -12 0.5 -16.5t13.5 -4.5h246l24 178q-88 47 -153 47q-100 0 -115 -98z" />
<glyph horiz-adv-x="2048" />
<glyph horiz-adv-x="2048" />
<glyph unicode="&#xd;" horiz-adv-x="2048" />
<glyph unicode=" "  horiz-adv-x="389" />
<glyph unicode="&#x09;" horiz-adv-x="389" />
<glyph unicode="&#xa0;" horiz-adv-x="389" />
<glyph unicode="!" horiz-adv-x="614" d="M94 123q0 101 57 155t173 54q176 0 176 -150q0 -99 -57 -153t-171 -54q-178 0 -178 148zM172 414l57 694l54 375h403l-53 -375l-139 -694h-322z" />
<glyph unicode="&#x22;" horiz-adv-x="901" d="M145 915l74 531h332l-74 -531h-332zM592 915l74 531h331l-73 -531h-332z" />
<glyph unicode="#" horiz-adv-x="1243" d="M70 225l88 252h172l55 189h-186l86 252h172l57 194h252l-57 -194h135l57 194h252l-57 -194h190l-84 -252h-178l-55 -189h190l-86 -252h-180l-64 -225h-251l63 225h-135l-64 -225h-252l64 225h-184zM582 477h135l55 189h-135z" />
<glyph unicode="$" horiz-adv-x="1067" d="M43 76l49 346l266 -16l7 -127q1 -17 2 -23t5 -12.5t13 -10.5q43 -16 127 -16q83 0 129.5 38.5t46.5 104.5q0 15 -3.5 28t-12.5 24t-17.5 20t-25 18.5t-28.5 16t-34.5 15t-36 13.5t-39.5 14.5t-40 14.5q-51 19 -87 35.5t-79.5 47t-70.5 65.5t-45.5 89t-18.5 120 q0 176 100.5 279t273.5 136l23 162h342l-23 -155q142 -15 256 -54l-51 -356l-268 14l-4 133q0 26 -21 35q-30 12 -98 12q-77 0 -126.5 -30.5t-49.5 -85.5q0 -15 3.5 -28t12 -24.5t17 -20.5t24.5 -19t27 -16t33.5 -15.5t35 -14.5t39 -15t39.5 -15q51 -20 88 -37t81 -48 t71.5 -66t46 -88.5t18.5 -117.5q0 -174 -101 -282.5t-271 -145.5l-25 -182h-340l23 172q-178 14 -283 68z" />
<glyph unicode="%" horiz-adv-x="1875" d="M131 819q0 100 25 180.5t75.5 142t134 95t195.5 33.5q309 0 309 -287q0 -208 -111 -332.5t-319 -124.5q-162 0 -235.5 79t-73.5 214zM332 -35l954 1307h348l-952 -1307h-350zM412 836q0 -115 65 -115q46 0 73 35t35.5 85.5t8.5 125.5q0 57 -16.5 81.5t-49.5 24.5 q-116 0 -116 -237zM1106 268q0 100 25 180.5t75.5 142t134 95t195.5 33.5q309 0 309 -287q0 -208 -110.5 -332.5t-319.5 -124.5q-162 0 -235.5 79t-73.5 214zM1386 285q0 -115 68 -115q65 0 90 65.5t25 180.5q0 57 -16.5 81.5t-49.5 24.5q-117 0 -117 -237z" />
<glyph unicode="&#x26;" horiz-adv-x="1437" d="M135 336q0 79 25.5 146t69.5 113t98 75.5t116 42.5v8q-76 25 -133 94.5t-57 169.5q0 207 148 314.5t395 107.5q150 0 287 -33t216 -86l-55 -344l-270 23l-8 123q-3 29 -29 38q-43 15 -123 15q-192 0 -192 -158q0 -68 43.5 -108.5t126.5 -40.5h63l-35 -258q-51 0 -92 -3.5 t-84 -15.5t-71.5 -31.5t-47 -54t-18.5 -80.5q0 -70 51 -108.5t143 -38.5q106 0 146 12q28 8 33 39l75 524l45 27h451l-27 -195l-86 -8q-18 -1 -24 -7t-8 -22l-74 -534q-237 -107 -551 -107q-290 0 -418.5 93t-128.5 268z" />
<glyph unicode="'" horiz-adv-x="454" d="M145 915l74 531h332l-74 -531h-332z" />
<glyph unicode="(" horiz-adv-x="798" d="M125 426q0 163 39 318t113 294t162.5 259t205.5 245l260 -168q-204 -241 -289.5 -472.5t-85.5 -510.5q0 -308 140 -598l-314 -166q-101 149 -166 364t-65 435z" />
<glyph unicode=")" horiz-adv-x="798" d="M-18 -205q204 241 289 472t85 511q0 310 -139 598l313 166q102 -150 167 -364.5t65 -434.5q0 -163 -39 -318t-113 -294t-162.5 -259t-205.5 -245z" />
<glyph unicode="*" horiz-adv-x="983" d="M215 1157l113 240l137 -47l133 -146l-66 193l21 149h252l-21 -149l-116 -193h-70l-31 -63l51 -39l-67 -211l-105 -123l-186 150l107 120l200 103l-215 -31zM618 1102l60 39l-10 63l174 146l149 47l43 -240l-149 -47l-207 31l172 -103l74 -120l-228 -150l-71 123z" />
<glyph unicode="+" d="M219 522l39 283h256l39 274h291l-39 -274h258l-39 -283h-258l-39 -282h-291l39 282h-256z" />
<glyph unicode="," horiz-adv-x="565" d="M86 76l82 254q55 0 93.5 -2.5t80.5 -11.5t68 -25t42.5 -44.5t16.5 -68.5q0 -69 -74 -186l-141 -238l-158 45l86 224q9 21 -10 26z" />
<glyph unicode="-" horiz-adv-x="636" d="M76 440l43 308h555l-43 -308h-555z" />
<glyph unicode="." horiz-adv-x="604" d="M90 123q0 101 56.5 155t172.5 54q177 0 177 -150q0 -99 -57 -153t-171 -54q-178 0 -178 148z" />
<glyph unicode="/" horiz-adv-x="1013" d="M-31 -188l797 1685h369l-795 -1685h-371z" />
<glyph unicode="0" horiz-adv-x="1218" d="M98 438q0 42 13 178q42 303 195 454t448 151q473 0 473 -461q0 -72 -13 -168q-29 -211 -102 -344.5t-206.5 -203t-334.5 -69.5q-247 0 -360 119.5t-113 343.5zM498 420q0 -97 27.5 -139.5t86.5 -42.5q54 0 89 27t64 105.5t48 219.5q16 118 16 182q0 97 -27 138.5 t-85 41.5q-55 0 -91 -26.5t-65.5 -103t-48.5 -212.5q-14 -109 -14 -190z" />
<glyph unicode="1" horiz-adv-x="837" d="M33 0l24 184l158 13q21 1 27.5 9t9.5 32l96 680q6 35 -20 43l-164 38l26 189h570l-131 -950q-3 -26 1 -33t25 -8l154 -15l-27 -182h-749z" />
<glyph unicode="2" horiz-adv-x="1087" d="M49 0l33 229l299 267q207 183 256 236q64 70 69 127q1 9 1 18q0 33 -20.5 54t-65.5 21q-63 0 -92 -35t-42 -131l-340 31q15 100 52.5 174.5t86.5 117.5t116.5 69t131 34.5t142.5 8.5q203 0 302 -85.5t99 -220.5q0 -59 -13.5 -109.5t-34.5 -89.5t-58.5 -81t-74 -75 t-91.5 -81q-7 -5 -11 -8.5t-9.5 -8.5t-10.5 -9l-254 -220h225q21 0 29 23l49 158h260l-55 -414h-979z" />
<glyph unicode="3" horiz-adv-x="1099" d="M-8 33l217 211q27 -27 50.5 -46t59 -42t79 -35t91.5 -12q189 0 189 161q0 133 -146 133q-72 0 -145 -14l33 244l82 10q108 12 169.5 67t61.5 152q0 40 -24 66t-72 26q-65 0 -95.5 -35t-43.5 -131l-346 31q12 96 50.5 169.5t89.5 116.5t120 70t133 36.5t137 9.5 q420 0 420 -332q0 -135 -74.5 -219t-185.5 -115v-8q205 -57 205 -277q0 -113 -42 -198.5t-118 -137.5t-174 -78t-217 -26q-163 0 -298 55t-206 148z" />
<glyph unicode="4" horiz-adv-x="1193" d="M72 121l34 241l504 877l283 -137l-430 -705h233l41 287l346 55l-47 -342h158l-39 -276h-158l-34 -258h-338l32 258h-585z" />
<glyph unicode="5" horiz-adv-x="1099" d="M-37 33l217 213q131 -135 287 -135q97 0 154 50.5t57 147.5q0 77 -39 110.5t-92 33.5q-96 0 -172 -82l-228 98l148 719h784l-47 -299h-520l-70 -250l7 -4q111 88 272 88q157 0 245.5 -93t88.5 -263q0 -117 -37 -214.5t-108 -169.5t-181.5 -112.5t-249.5 -40.5 q-172 0 -306.5 55.5t-209.5 147.5z" />
<glyph unicode="6" horiz-adv-x="1153" d="M117 479q0 124 21 242t71.5 234.5t126.5 203t195.5 140t269.5 53.5q240 0 395 -152l-186 -207q-101 86 -219 86q-96 0 -172 -78.5t-95 -226.5q149 60 275 60q70 0 130 -19t109 -57.5t77 -105.5t28 -156q0 -108 -29.5 -196t-80.5 -148t-122.5 -100.5t-153.5 -58.5 t-175 -18q-124 0 -216.5 41t-145 113t-78 159.5t-25.5 190.5zM496 453q0 -62 9 -104t36 -70.5t73 -28.5q39 0 68 18.5t43 43t22 60t9.5 56.5t1.5 45q0 63 -26 93t-81 30q-65 0 -149 -33q0 -7 -3 -47.5t-3 -62.5z" />
<glyph unicode="7" horiz-adv-x="1118" d="M123 678l76 510h1042l-43 -266q-211 -205 -358 -480t-197 -579h-395q28 163 83 315t112.5 258t129.5 204t120.5 150t99.5 99h-328q-18 0 -27 -27l-51 -164z" />
<glyph unicode="8" horiz-adv-x="1097" d="M63 287q0 128 62.5 221.5t169.5 167.5q-115 108 -115 266q0 194 141 302t388 108q188 0 294.5 -81.5t106.5 -226.5q0 -106 -53.5 -195.5t-136.5 -156.5q79 -51 122 -117t43 -167q0 -140 -76 -239t-205.5 -146.5t-301.5 -47.5q-214 0 -326.5 79t-112.5 233zM367 344 q0 -60 39.5 -93.5t121.5 -33.5q87 0 126.5 37t39.5 98q0 18 -5.5 35t-19.5 33t-25 27.5t-35 27.5l-36 24t-41.5 25t-39.5 23q-125 -105 -125 -203zM539 989q0 -53 41 -94t114 -84q113 104 113 193q0 49 -31 77.5t-90 28.5q-70 0 -108.5 -34.5t-38.5 -86.5z" />
<glyph unicode="9" horiz-adv-x="1163" d="M53 0l178 215q52 -45 122 -78t139 -33q106 0 163.5 70.5t85.5 228.5q-124 -59 -258 -59q-74 0 -136.5 19.5t-112.5 58.5t-78.5 106t-28.5 156q0 254 154 395.5t411 141.5q124 0 214.5 -37.5t144 -107t79 -160.5t25.5 -207q0 -60 -3.5 -117.5t-14 -126.5t-26.5 -131 t-44 -127t-63.5 -119t-87.5 -102.5t-114.5 -81.5t-145.5 -52.5t-179 -19.5q-122 0 -240 49t-184 119zM514 727q0 -68 24.5 -99.5t84.5 -31.5q67 0 147 41q6 64 6 111q0 200 -117 200q-51 0 -85.5 -35.5t-47 -83t-12.5 -102.5z" />
<glyph unicode=":" horiz-adv-x="604" d="M90 123q0 101 56.5 155t172.5 54q177 0 177 -150q0 -99 -57 -153t-171 -54q-178 0 -178 148zM213 889q0 101 56.5 155t172.5 54q176 0 176 -150q0 -99 -56.5 -153t-170.5 -54q-178 0 -178 148z" />
<glyph unicode=";" horiz-adv-x="565" d="M86 76l82 254q55 0 93.5 -2.5t80.5 -11.5t68 -25t42.5 -44.5t16.5 -68.5q0 -69 -74 -186l-141 -238l-158 45l86 224q9 21 -10 26zM207 889q0 101 56.5 155t172.5 54q176 0 176 -150q0 -99 -56.5 -153t-170.5 -54q-178 0 -178 148z" />
<glyph unicode="&#x3c;" d="M215 432l47 336l852 274l39 -274l-592 -168l547 -172l-119 -268z" />
<glyph unicode="=" d="M182 229l39 283h805l-39 -283h-805zM240 641l39 283h804l-39 -283h-804z" />
<glyph unicode="&#x3e;" d="M166 442l596 172l-543 168l107 260l774 -274l-47 -336l-852 -272z" />
<glyph unicode="?" horiz-adv-x="1148" d="M205 977l55 399q290 107 506 107q80 0 145.5 -10.5t126.5 -38t102.5 -71t66 -113t24.5 -160.5q0 -95 -29.5 -177.5t-89.5 -153t-163 -120t-240 -68.5l-23 -157h-383l53 379q48 3 80.5 6.5t85.5 12t89.5 20t78.5 33t68 48.5t43.5 67.5t17.5 90.5q0 57 -29 80t-83 23 q-76 0 -123 -13q-18 -6 -26 -14.5t-11 -26.5l-27 -119zM256 123q0 101 56.5 155t172.5 54q177 0 177 -150q0 -99 -57 -153t-171 -54q-178 0 -178 148z" />
<glyph unicode="@" horiz-adv-x="1736" d="M141 213q0 208 70.5 386t193 301.5t293 193t365.5 69.5q292 0 462.5 -146.5t170.5 -412.5q0 -304 -136.5 -466.5t-369.5 -162.5q-168 0 -213 136q-74 -65 -134.5 -100.5t-119.5 -35.5q-93 0 -149 62t-56 176q0 110 39 217.5t107.5 192.5t171 137.5t219.5 52.5 q152 0 282 -65l-82 -277q-7 -25 -22 -70.5t-21 -68.5q-18 -63 -18 -99q0 -63 68 -63q61 0 107.5 68.5t67.5 159.5t21 180q0 174 -104 272t-324 98q-133 0 -244 -43t-185 -113t-125 -162.5t-74 -189.5t-23 -196q0 -207 119.5 -322t343.5 -115q161 0 346 64l26 -193 q-167 -71 -430 -71q-304 0 -473.5 156.5t-169.5 449.5zM760 270q0 -94 61 -94q65 0 152 84l110 369q-21 18 -67 18q-92 0 -174 -110t-82 -267z" />
<glyph unicode="A" horiz-adv-x="1579" d="M-20 0l26 180l94 23q40 10 54 39l608 1241h430l258 -1245q3 -17 12.5 -23.5t32.5 -11.5l90 -23l-26 -180h-719l26 180l162 19l-27 155h-460l-68 -155l156 -19l-27 -180h-622zM649 618h320l-80 465h-21z" />
<glyph unicode="B" horiz-adv-x="1329" d="M16 0l27 180l129 15q22 3 29 10.5t10 30.5l139 1007q3 24 -2 32t-26 9l-125 14l24 185h721q109 0 188.5 -26t123.5 -72t64.5 -101.5t20.5 -122.5q0 -84 -25.5 -151.5t-70 -112.5t-94 -74t-107.5 -47v-6q287 -34 287 -299q0 -126 -47 -219t-132 -147t-193 -79.5 t-242 -25.5h-699zM596 264h84q128 0 192 50.5t64 174.5q0 81 -48.5 112.5t-131.5 31.5h-109zM680 883h25q50 0 86 4t71.5 16.5t57.5 34t35.5 58t13.5 87.5q0 36 -11.5 61.5t-27.5 39t-44 20.5t-50 8.5t-56 1.5h-55z" />
<glyph unicode="C" horiz-adv-x="1382" d="M115 616q0 158 35 294t106 246.5t173.5 189t243.5 121t310 42.5q126 0 256 -31.5t205 -86.5l-60 -447l-270 23l-4 190q0 24 -7 34t-22 15q-44 15 -131 15q-199 0 -315.5 -148t-116.5 -432q0 -188 75 -285.5t212 -97.5q120 0 164 16q24 11 32 41l60 199h266l-59 -424 q-95 -54 -241.5 -84.5t-289.5 -30.5q-160 0 -280 45.5t-194.5 130.5t-111 201t-36.5 264z" />
<glyph unicode="D" horiz-adv-x="1499" d="M16 0l27 184l129 15q21 1 28.5 9t10.5 32l139 1005q3 22 -1.5 30t-24.5 11l-127 14l24 183h682q321 0 476 -156t155 -444q0 -152 -33 -284t-102 -242.5t-170.5 -189.5t-245.5 -123t-319 -44h-648zM598 264h51q122 0 218 51t154.5 137t89 193t30.5 227q0 180 -82 262.5 t-266 82.5h-66z" />
<glyph unicode="E" horiz-adv-x="1273" d="M16 0l25 180l129 15q22 3 29 10.5t10 30.5l141 1009q3 24 -1.5 32t-24.5 9l-127 14l24 183h1104l-63 -459l-271 10l-6 156q-2 15 -9 21t-24 6h-225l-45 -336h432l-39 -277h-432l-45 -340h268q18 0 24.5 4t12.5 19l55 180h271l-64 -467h-1149z" />
<glyph unicode="F" horiz-adv-x="1224" d="M16 0l25 180l129 15q22 3 29 10.5t10 30.5l141 1009q3 24 -1.5 32t-24.5 9l-127 14l24 183h1098l-66 -459l-270 10l-6 156q-2 15 -9 21t-24 6h-217l-45 -336h424l-39 -277h-424l-49 -364q-3 -25 0.5 -31.5t23.5 -9.5l295 -17l-24 -182h-873z" />
<glyph unicode="G" horiz-adv-x="1472" d="M115 612q0 157 34.5 293t105.5 247.5t174 190.5t245.5 122.5t314.5 43.5q114 0 244 -30.5t213 -92.5l-57 -425l-273 22l-4 178q0 21 -5 31t-22 14q-62 15 -139 15q-199 0 -312.5 -161t-113.5 -425q0 -178 72 -276.5t221 -98.5q84 0 121 12q24 8 29 37l32 207h-198l61 215 h658l-27 -194l-82 -9q-19 -2 -26.5 -7.5t-10.5 -20.5l-55 -418q-237 -107 -561 -107q-172 0 -298.5 49t-199.5 138t-107 200.5t-34 249.5z" />
<glyph unicode="H" horiz-adv-x="1654" d="M18 0l25 180l129 15q22 3 29 10.5t10 30.5l139 1007q3 24 -2 32t-26 9l-123 14l24 185h711l-25 -185l-137 -16q-23 -3 -28.5 -9t-8.5 -30l-47 -344h465l49 344q3 24 -2 32t-26 9l-125 14l26 185h711l-27 -185l-135 -16q-23 -3 -28.5 -9t-8.5 -30l-141 -1005 q-3 -26 0.5 -32t26.5 -9l133 -17l-25 -180h-711l25 180l127 15q22 3 29 10.5t10 30.5l55 385h-467l-53 -383q-3 -26 0.5 -32t24.5 -9l133 -17l-25 -180h-711z" />
<glyph unicode="I" horiz-adv-x="804" d="M2 0l21 180l149 15q21 1 27.5 9t9.5 32l143 1007q3 24 -2 32t-26 9l-144 14l27 185h749l-26 -185l-156 -16q-23 -3 -28.5 -9t-8.5 -30l-141 -1005q-3 -26 0.5 -32t24.5 -9l153 -17l-22 -180h-750z" />
<glyph unicode="J" horiz-adv-x="1044" d="M29 59l57 414l272 -20v-146q0 -23 15 -28q21 -7 49 -7q35 0 51.5 16.5t22.5 59.5l125 897q3 20 -3 28t-26 9l-184 16l24 185h772l-26 -185l-138 -16q-21 -3 -26 -9t-8 -30l-125 -891q-27 -193 -136.5 -285t-322.5 -92q-119 0 -233.5 26t-159.5 58z" />
<glyph unicode="K" horiz-adv-x="1527" d="M16 0l25 182l129 15q22 2 29 9t10 32l141 1007q3 22 -1.5 30t-24.5 11l-123 14l20 183h711l-21 -183l-139 -16q-23 -3 -28.5 -9t-8.5 -30l-67 -477l495 514l-123 16l25 185h569l-22 -185l-76 -12q-27 -4 -38.5 -10.5t-29.5 -24.5l-387 -405l262 -602q9 -22 21 -30t37 -11 l121 -21l-23 -182h-500l-6 4l-73 203l-144 346l-162 -176l-20 -137q-3 -26 0.5 -33t23.5 -8l134 -17l-25 -182h-711z" />
<glyph unicode="L" horiz-adv-x="1251" d="M16 0l25 182l129 15q22 3 29 10.5t10 30.5l141 1007q3 24 -1.5 32t-24.5 9l-123 14l20 183h744l-23 -183l-170 -16q-22 -1 -28 -8.5t-9 -30.5l-137 -981h266q18 0 24.5 4t12.5 19l62 217h272l-70 -504h-1149z" />
<glyph unicode="M" horiz-adv-x="1953" d="M16 0l25 180l129 15q22 2 29 9t10 32l141 1009q3 22 -1.5 30t-24.5 11l-123 14l20 183h580l223 -887h14l443 887h604l-23 -180l-135 -17q-24 -3 -30 -9t-9 -30l-143 -1011q-3 -22 2 -30t25 -9l133 -17l-25 -180h-731l25 180l165 15q21 1 28.5 9.5t10.5 31.5l86 620h-12 l-305 -594h-393l-154 586h-12l-84 -610q-4 -25 -0.5 -32.5t24.5 -8.5l170 -17l-24 -180h-658z" />
<glyph unicode="N" horiz-adv-x="1658" d="M16 0l25 180l129 15q22 3 29 10.5t10 30.5l141 1011q3 25 -1 32.5t-25 8.5l-123 15l20 180h559l447 -975l104 735q3 24 -1.5 32t-24.5 9l-125 14l24 185h598l-24 -185l-138 -16q-21 -3 -26 -9t-8 -30l-176 -1243h-396l-450 969l-101 -731q-3 -26 0.5 -32t26.5 -9l131 -17 l-23 -180h-602z" />
<glyph unicode="O" horiz-adv-x="1556" d="M119 561q0 202 53.5 373t157.5 300t268 202t373 73q159 0 278.5 -45t191 -127t106 -188.5t34.5 -237.5q0 -440 -225 -688t-629 -248q-161 0 -280 42t-190 121t-104.5 184t-33.5 239zM526 598q0 -169 65 -242t195 -73q77 0 139 26.5t114 86.5t85.5 166.5t46.5 256.5 q5 62 5 72q0 311 -250 311q-166 0 -269.5 -129.5t-128.5 -406.5q-2 -23 -2 -68z" />
<glyph unicode="P" horiz-adv-x="1296" d="M16 0l27 182l129 15q22 3 29 10.5t10 30.5l139 1005q3 24 -2 32t-26 9l-123 14l22 185h703q231 0 337.5 -104.5t106.5 -286.5q0 -272 -166.5 -412.5t-460.5 -140.5h-108l-39 -299q-3 -25 0.5 -31.5t23.5 -9.5l287 -17l-26 -182h-863zM670 801h43q254 0 254 252 q0 42 -12 73t-29.5 47.5t-44.5 26t-49 12t-50 2.5h-57z" />
<glyph unicode="Q" horiz-adv-x="1556" d="M119 561q0 202 53.5 373t157.5 300t268 202t373 73q159 0 278.5 -45t191 -127t106 -188.5t34.5 -237.5q0 -399 -192 -638t-564 -265v-4q240 -108 435 -108q80 0 163 14l-8 -268q-99 -17 -186 -17q-94 0 -179 18.5t-145.5 45.5t-112.5 54t-103 45.5t-95 18.5 q-122 0 -256 -88l-129 228q45 32 111.5 60.5t119.5 41.5v6q-159 64 -240 197t-81 309zM526 598q0 -169 65 -242t195 -73q77 0 139 26.5t114 86.5t85.5 166.5t46.5 256.5q5 62 5 72q0 311 -250 311q-166 0 -269.5 -129.5t-128.5 -406.5q-2 -23 -2 -68z" />
<glyph unicode="R" horiz-adv-x="1394" d="M18 0l25 184l129 15q22 2 29 9t10 32l141 1005q3 22 -1.5 30t-24.5 11l-123 14l20 183h711q115 0 201.5 -29.5t137 -82t75 -116.5t24.5 -139q0 -72 -17 -132.5t-44.5 -105t-69.5 -83.5t-84.5 -65.5t-97.5 -51.5q66 -36 94 -166l57 -268q4 -23 15 -32.5t35 -12.5l126 -15 l-24 -184h-490l-12 12l-98 484q-10 51 -29 73.5t-69 22.5h-21l-49 -350q-3 -25 0.5 -31.5t23.5 -9.5l113 -17l-22 -184h-691zM678 844h39q43 0 76 4t68 17.5t57.5 37t37.5 65t15 97.5q0 76 -42 112.5t-132 36.5h-70z" />
<glyph unicode="S" horiz-adv-x="1200" d="M47 63l62 437h278l14 -197q2 -19 10.5 -29t32.5 -14q54 -8 115 -8q109 0 170.5 44t61.5 120q0 28 -12 51.5t-29.5 39t-49 31.5t-57 26t-68.5 24q-145 50 -206 86q-164 96 -178 286q-1 19 -1 39q0 125 49 224t134.5 160.5t196 93.5t239.5 32q238 0 438 -92l-57 -430 l-281 25v166q0 27 -8.5 35.5t-30.5 11.5q-31 4 -98 4q-93 0 -145 -40.5t-52 -107.5q0 -27 13.5 -49.5t29.5 -36.5t53.5 -31t59 -24.5t72.5 -24.5q46 -15 75 -26t72.5 -31.5t71.5 -41t60 -53t50.5 -69.5t31 -88.5t12.5 -111.5q0 -129 -51 -230t-140 -163t-205 -94t-252 -32 q-135 0 -274.5 27.5t-206.5 60.5z" />
<glyph unicode="T" horiz-adv-x="1445" d="M164 1014l63 469h1346l-64 -469h-270l-8 178q-1 15 -6 18.5t-23 3.5h-145l-133 -976q-4 -22 0 -30t24 -9l219 -17l-24 -182h-877l25 182l209 15q20 1 27 9t10 32l135 976h-146q-16 0 -22 -4t-10 -18l-58 -178h-272z" />
<glyph unicode="U" horiz-adv-x="1589" d="M190 1300l25 183h711l-25 -183l-139 -16q-22 -3 -27 -9t-8 -30l-88 -614q-12 -89 -12 -158q0 -96 41.5 -143t150.5 -47q75 0 127.5 19.5t87.5 64t55 107.5t33 157l86 614q3 24 -1.5 32t-24.5 9l-125 14l24 183h652l-25 -183l-139 -16q-23 -3 -28 -9t-7 -30l-98 -692 q-43 -302 -204 -440t-439 -138q-280 0 -418.5 110.5t-138.5 344.5q0 55 10 133l94 682q3 24 -1.5 32t-23.5 9z" />
<glyph unicode="V" horiz-adv-x="1509" d="M147 1303l27 180h709l-27 -180l-164 -19l131 -907h23l366 907l-149 19l24 180h603l-27 -180l-88 -23q-42 -10 -57 -47l-519 -1233h-507l-213 1245q-4 17 -14 23.5t-32 11.5z" />
<glyph unicode="W" horiz-adv-x="2136" d="M147 1303l27 180h686l-26 -180l-164 -19l65 -915h15l325 854h367l76 -863h22l289 924l-156 19l27 180h608l-27 -180l-94 -23q-22 -5 -34.5 -16t-22.5 -39l-426 -1225h-506l-63 639h-17l-223 -639h-502l-112 1223q-3 33 -10.5 41t-37.5 16z" />
<glyph unicode="X" horiz-adv-x="1640" d="M20 0l27 180l129 23q28 7 57 39l439 471l-342 532q-14 27 -43 35l-107 23l29 180h745l-26 -180l-162 -19l199 -309l278 309l-153 19l28 180h615l-25 -180l-109 -23q-28 -7 -57 -39l-442 -479l344 -524q22 -34 55 -39l96 -19l-26 -180h-748l27 180l156 19l-195 303 l-274 -303l157 -19l-26 -180h-646z" />
<glyph unicode="Y" horiz-adv-x="1427" d="M152 1303l26 180h709l-27 -180l-164 -19l146 -414h22l256 414l-153 19l26 180h592l-26 -180l-89 -23q-44 -10 -55 -39l-448 -698l-43 -305q-4 -22 0 -30t26 -9l219 -17l-24 -182h-877l25 182l209 15q20 1 27 9t10 32l43 303l-299 704q-11 27 -45 35z" />
<glyph unicode="Z" horiz-adv-x="1382" d="M55 0l35 244l828 973h-345q-17 0 -23.5 -4t-10.5 -19l-60 -188l-274 -11l69 488h1141l-35 -252l-815 -967h393q18 0 24.5 4t12.5 19l68 219h264l-70 -506h-1202z" />
<glyph unicode="[" horiz-adv-x="688" d="M41 -293l250 1776h528l-18 -174l-133 -25q-20 -3 -28 -12.5t-11 -30.5l-183 -1292q-6 -38 27 -43l127 -25l-31 -174h-528z" />
<glyph unicode="\" horiz-adv-x="968" d="M233 1497h349l321 -1685h-350z" />
<glyph unicode="]" horiz-adv-x="688" d="M-23 -293l21 174l131 25q21 3 28.5 12t10.5 31l180 1292q3 21 -1.5 30t-24.5 13l-125 25l30 174h529l-250 -1776h-529z" />
<glyph unicode="^" horiz-adv-x="1320" d="M119 612l508 748h387l303 -748h-363l-180 437l-297 -437h-358z" />
<glyph unicode="_" horiz-adv-x="1024" d="M-51 -371l37 267h1024l-37 -267h-1024z" />
<glyph unicode="`" horiz-adv-x="1024" d="M475 1448l221 180l260 -366l-155 -121z" />
<glyph unicode="a" horiz-adv-x="1269" d="M86 397q0 96 16.5 190t55.5 187.5t97 164.5t148 115t201 44q162 0 275 -119l43 96h317q-44 -226 -51 -278l-78 -561q-3 -23 1 -29.5t26 -9.5l92 -15l-25 -182h-452l22 154l-10 4q-102 -98 -182.5 -140.5t-180.5 -42.5q-315 0 -315 422zM481 426q0 -68 17.5 -102.5 t62.5 -34.5q37 0 98.5 35t114.5 84l49 350q-66 55 -135 55q-59 0 -102.5 -43t-64.5 -109t-30.5 -125t-9.5 -110z" />
<glyph unicode="b" horiz-adv-x="1255" d="M78 0q59 193 74 303l137 973q3 32 -21 43l-100 39l29 188h491l-88 -616l8 -6q180 174 348 174q295 0 295 -396q0 -72 -6.5 -141t-22.5 -142.5t-41 -137t-64 -120.5t-89 -97.5t-119 -64.5t-151 -24q-80 0 -153 31.5t-126 93.5l-10 -2l-25 -98h-366zM526 317 q81 -51 146 -51q62 0 104 56t58 131t16 161q0 34 -2.5 59t-10 51t-23.5 40t-40 14q-62 0 -199 -108z" />
<glyph unicode="c" horiz-adv-x="1044" d="M82 434q0 160 48.5 287.5t134.5 209t201 124.5t251 43q113 0 215 -30t153 -71l-49 -350l-254 10l-6 138q0 29 -20 34q-37 11 -74 11q-87 0 -148 -89.5t-61 -279.5q0 -121 46 -169t126 -48q20 0 41 1.5t43 6t38 7.5t40 10t33.5 10t34.5 11t28 9l58 -223 q-86 -50 -196.5 -80.5t-221.5 -30.5q-119 0 -208.5 33.5t-144 95t-81.5 144.5t-27 186z" />
<glyph unicode="d" horiz-adv-x="1273" d="M86 391q0 76 12 154t36 158.5t66 150.5t97.5 125t134.5 87t172 32q147 0 260 -78l33 256q3 20 -1 28.5t-19 14.5l-99 39l31 188h483l-182 -1310q-3 -23 1 -29.5t26 -9.5l92 -15l-25 -182h-452l22 154l-10 4q-102 -98 -182.5 -140.5t-180.5 -42.5q-153 0 -234 103.5 t-81 312.5zM481 412q0 -123 80 -123q37 0 98.5 35t114.5 84l51 362q-64 43 -129 43q-62 0 -107 -42t-67 -108.5t-31.5 -128.5t-9.5 -122z" />
<glyph unicode="e" horiz-adv-x="1064" d="M82 420q0 136 33.5 248.5t92 191.5t138.5 133t172 79.5t193 25.5q175 0 269.5 -74t94.5 -213q0 -79 -34 -142.5t-88.5 -105.5t-135.5 -73t-162.5 -48t-181.5 -28q7 -162 170 -162q111 0 299 74l53 -238q-257 -113 -458 -113q-122 0 -212 34t-142 96t-76.5 140t-24.5 175z M479 633q254 35 254 137q0 31 -20.5 47.5t-55.5 16.5q-59 0 -109 -51.5t-69 -149.5z" />
<glyph unicode="f" horiz-adv-x="915" d="M76 -434l176 1245q3 20 -14 20h-127l32 244h146l14 99q31 214 144.5 305.5t304.5 91.5q95 0 204 -31t177 -82l-134 -231q-111 73 -202 73q-100 0 -115 -98l-16 -106q-2 -12 0.5 -16.5t13.5 -4.5h309l-35 -244h-325l-176 -1265h-377z" />
<glyph unicode="g" horiz-adv-x="1228" d="M68 -330l114 224q41 -28 137 -60.5t189 -32.5q114 0 170.5 51t69.5 166l16 136l-12 6q-105 -87 -180.5 -126.5t-170.5 -39.5q-157 0 -236 96.5t-79 306.5q0 96 16.5 190t55.5 187.5t97 164.5t148 115t201 44q165 0 275 -119l43 96h317q-44 -226 -51 -278l-113 -807 q-13 -96 -46.5 -172t-81 -127t-111.5 -84.5t-135.5 -48.5t-155.5 -15q-146 0 -284.5 43.5t-192.5 83.5zM481 426q0 -65 17 -92t63 -27q38 0 101.5 30.5t111.5 70.5l49 350q-66 55 -135 55q-59 0 -102.5 -43t-64.5 -109t-30.5 -125t-9.5 -110z" />
<glyph unicode="h" horiz-adv-x="1271" d="M12 0l25 184l84 13q20 3 27 10.5t10 30.5l145 1038q6 35 -18 43l-97 39l27 188h479l-86 -618l8 -6q99 86 136 110q98 66 209 66q135 0 196 -89q44 -64 44 -172q0 -43 -7 -92l-72 -507q-3 -26 0.5 -32t24.5 -9l94 -15l-24 -182h-500l-4 14l37 226l63 452q2 14 2 25 q0 59 -47 59q-51 0 -176 -102l-62 -436q-3 -26 0.5 -32t26.5 -9l80 -15l-25 -182h-600z" />
<glyph unicode="i" horiz-adv-x="679" d="M111 12l53 301l67 492q6 34 -20 43l-96 39l26 188h504l-117 -837q-3 -26 0.5 -32t26.5 -9l84 -15l-23 -182h-499zM264 1382q0 117 65 182.5t181 65.5q90 0 139 -46t49 -132q0 -117 -66 -184.5t-183 -67.5q-89 0 -137 47.5t-48 134.5z" />
<glyph unicode="j" horiz-adv-x="679" d="M-299 -342l121 201q89 -49 166 -49q28 0 46.5 5t37 20.5t30.5 48t19 83.5l119 838q3 32 -21 43l-98 39l26 188h500l-160 -1167q-27 -192 -137 -278.5t-299 -86.5q-122 0 -219 39.5t-131 75.5zM266 1382q0 117 65 182.5t181 65.5q90 0 139 -46t49 -132q0 -117 -66 -184.5 t-183 -67.5q-89 0 -137 47.5t-48 134.5z" />
<glyph unicode="k" horiz-adv-x="1277" d="M12 0l23 184l88 13q20 3 27 10.5t10 30.5l145 1038q3 33 -20 43l-101 39l29 188h504l-111 -807l254 228q91 81 156.5 106t142.5 25q68 0 135 -17l-26 -211h-18q-49 0 -88 -14q-46 -16 -95 -59l-90 -82l160 -486q7 -21 19.5 -28.5t37.5 -10.5l78 -12l-25 -178h-444l-6 4 l-64 238l-88 262l-84 -78l-26 -188q-4 -25 0 -31.5t26 -9.5l84 -15l-22 -182h-611z" />
<glyph unicode="l" horiz-adv-x="681" d="M115 12l53 301l135 963q6 34 -20 43l-97 39l27 188h504l-185 -1308q-3 -26 0.5 -32t26.5 -9l84 -15l-22 -182h-500z" />
<glyph unicode="m" horiz-adv-x="1781" d="M12 0l25 184l84 13q20 3 26 10t11 31l78 567q6 35 -19 43l-96 39l26 188h465l-20 -147l8 -4q44 38 64 54.5t60 45t69 41t70.5 23t84.5 10.5q90 0 139.5 -42.5t57.5 -121.5l10 -6q47 40 75.5 62t75.5 51.5t94.5 43t98.5 13.5q131 0 181 -86q33 -57 32 -157q0 -50 -8 -110 l-72 -507q-3 -26 0.5 -32t24.5 -9l94 -15l-25 -182h-499l-4 10l41 252l59 430q6 42 -2.5 58t-30.5 16q-44 0 -147 -92l-62 -436q-3 -26 0.5 -32t24.5 -9l70 -15l-25 -182h-475l-2 10l41 262l57 420q2 14 2 26q0 46 -35 46q-17 0 -43.5 -14.5t-47 -30t-56.5 -45.5l-60 -436 q-3 -26 0.5 -32t26.5 -9l64 -15l-25 -182h-586z" />
<glyph unicode="n" horiz-adv-x="1271" d="M12 0l25 184l84 13q20 3 27 10.5t10 30.5l78 567q6 35 -19 43l-96 39l26 188h465l-20 -147l8 -4q51 44 81 67.5t77.5 52.5t96.5 41.5t106 12.5q135 0 196 -89q44 -64 44 -172q0 -43 -7 -92l-72 -507q-3 -26 0.5 -32t24.5 -9l94 -15l-24 -182h-500l-4 10l41 258l59 424 q2 14 2 25q0 59 -47 59q-51 0 -176 -102l-60 -436q-3 -26 0.5 -32t26.5 -9l80 -15l-25 -182h-602z" />
<glyph unicode="o" horiz-adv-x="1206" d="M82 424q0 68 8 125q36 256 199 402.5t436 146.5q131 0 226.5 -34.5t149.5 -97.5t78.5 -139t24.5 -170q0 -48 -10 -127q-18 -127 -62 -226t-118 -174t-185.5 -115t-255.5 -40q-249 0 -370 117t-121 332zM473 420q0 -187 129 -187q75 0 123 65t72 224q8 61 8 129 q0 183 -125 183q-165 0 -199 -295q-8 -63 -8 -119z" />
<glyph unicode="p" horiz-adv-x="1261" d="M41 -426l59 340l127 891q6 32 -20 43l-94 39l26 188h467l-22 -147l10 -4q180 174 356 174q144 0 225.5 -100.5t81.5 -317.5q0 -352 -133.5 -528.5t-361.5 -176.5q-78 0 -147.5 29.5t-106.5 65.5l-12 -2l-41 -269q-3 -28 30 -30l217 -21l-26 -182h-633zM532 313 q75 -47 146 -47q62 0 104 56t58 131t16 161q0 34 -2.5 59t-10 51t-23.5 40t-40 14q-37 0 -83.5 -28t-112.5 -80z" />
<glyph unicode="q" horiz-adv-x="1230" d="M88 397q0 96 16.5 190t55.5 187.5t97 164.5t148 115t201 44q45 0 107 -15q96 -26 168 -104l43 96h317q-44 -226 -51 -278l-137 -996q-3 -24 1 -30t25 -9l92 -14l-24 -182h-684l26 184l189 17q25 2 35.5 9t13.5 25l49 353l-12 6q-76 -73 -137.5 -114t-126.5 -58 q-50 -13 -97 -13q-315 0 -315 422zM483 426q0 -68 17.5 -102.5t62.5 -34.5q37 0 98.5 35t114.5 84l49 350q-66 55 -135 55q-59 0 -102.5 -43t-64.5 -109t-30.5 -125t-9.5 -110z" />
<glyph unicode="r" horiz-adv-x="1003" d="M12 0l25 184l88 13q21 3 27.5 10t9.5 31l78 567q3 32 -21 43l-98 39l26 188h467l-26 -170l10 -6q133 199 315 199q34 0 90 -7t82 -14l-55 -409l-299 10l-6 86q-3 27 -23 27q-38 0 -94 -39l-71 -510q-3 -25 2 -32.5t28 -8.5l201 -19l-27 -182h-729z" />
<glyph unicode="s" horiz-adv-x="1011" d="M45 51l41 295l258 -16l4 -107q0 -27 27 -35q44 -14 121 -14q71 0 108 27t37 73q0 22 -12 37.5t-38.5 27.5t-51 19t-66.5 18q-19 5 -29 7q-54 14 -90 26t-83 37t-75.5 56.5t-48.5 83t-20 116.5q0 82 26.5 148.5t73 112t111 76.5t139 45t158.5 14q115 0 228 -20.5 t163 -43.5l-43 -315l-262 14l-4 92q0 16 -4.5 23.5t-20.5 13.5q-35 12 -98 12q-60 0 -87.5 -19t-27.5 -62q0 -41 72 -67q24 -8 108 -30q55 -14 91 -25.5t85.5 -37.5t79 -57t51 -83t21.5 -118q0 -203 -143 -301.5t-393 -98.5q-134 0 -247.5 24.5t-158.5 51.5z" />
<glyph unicode="t" horiz-adv-x="897" d="M82 831l33 230q143 14 223.5 95.5t120.5 254.5h233l-45 -315q-2 -12 1 -16.5t14 -4.5h276l-33 -244h-293l-59 -419q-6 -37 -6 -62q0 -53 26 -75.5t89 -22.5q62 0 149 27l39 -213q-77 -39 -180.5 -65t-192.5 -26q-169 0 -243 60t-74 196q0 55 8 107l65 473v4q0 6 -0.5 8.5 t-3.5 5t-10 2.5h-137z" />
<glyph unicode="u" horiz-adv-x="1267" d="M113 893l24 182h500l-96 -692q-2 -14 -2 -25q0 -59 47 -59q51 0 176 102l59 437q4 25 0 31.5t-26 9.5l-88 14l24 182h502l-117 -833q-7 -39 19 -43l98 -17l-27 -182h-465l21 147l-8 7q-53 -46 -81.5 -68.5t-77 -52.5t-97 -43t-105.5 -13q-115 0 -177 66.5t-62 196.5 q0 40 6 90l71 508q4 25 0.5 31.5t-24.5 9.5z" />
<glyph unicode="v" horiz-adv-x="1267" d="M92 893l25 182h452l23 -22l43 -246l63 -440h19l244 512l-136 16l27 180h446l31 -84l-510 -991h-436l-174 840q-4 18 -11 23.5t-26 10.5z" />
<glyph unicode="w" horiz-adv-x="1806" d="M90 895l31 180h444l21 -22l12 -207l49 -465h21l202 670h402l76 -674h18l195 506l-103 12l29 180h362l31 -80l-418 -995h-415l-66 606h-16l-174 -606h-459l-125 842q-3 18 -10.5 24t-26.5 11z" />
<glyph unicode="x" horiz-adv-x="1245" d="M2 0l21 176l71 14q30 5 60 35l299 287l-220 324q-10 16 -17 22t-23 12l-80 23l28 182h371l27 -20l190 -307l135 133l-90 14l31 180h510l-27 -180l-92 -21q-16 -3 -26 -10t-31 -28l-281 -267l227 -340q19 -31 50 -36l90 -13l-29 -180h-389l-27 23l-200 317l-142 -143 l105 -19l-21 -178h-520z" />
<glyph unicode="y" horiz-adv-x="1239" d="M-92 -346l121 207q94 -62 190 -62q59 0 97.5 27.5t74.5 87.5l45 76l-237 850q-6 18 -12.5 23.5t-24.5 10.5l-80 19l29 182h415l27 -28l57 -261l82 -370h21l239 461l-125 16l29 182h414l35 -84l-619 -1163q-78 -149 -180 -217t-273 -68q-107 0 -194.5 36t-130.5 75z" />
<glyph unicode="z" horiz-adv-x="1085" d="M45 0l29 209l573 641h-209q-13 0 -19.5 -5t-12.5 -20l-39 -106l-252 -10l51 366h940l-31 -213l-561 -639h219q25 0 33 27l43 135l258 8l-53 -393h-969z" />
<glyph unicode="{" horiz-adv-x="729" d="M111 498l26 186q71 6 101.5 34t42.5 99q14 88 15 219.5t5 173.5q13 115 68 176t163.5 84t301.5 19l6 -191q-102 -13 -128 -51t-26 -172q0 -21 1 -79.5t1 -77.5q0 -142 -39.5 -217.5t-124.5 -110.5q97 -45 97 -176q0 -84 -44.5 -219.5t-44.5 -196.5q0 -55 25 -78t98 -37 l-47 -190q-258 0 -368.5 53.5t-110.5 190.5q0 91 46 234t46 226q0 52 -25 74t-85 27z" />
<glyph unicode="|" horiz-adv-x="587" d="M43 -293l250 1776h348l-250 -1776h-348z" />
<glyph unicode="}" horiz-adv-x="729" d="M0 -117q102 13 128 51t26 172q0 21 -1 80t-1 78q0 142 39 218t124 110q-96 44 -96 176q0 84 44 219.5t44 196.5q0 55 -25 77.5t-98 36.5l47 191q258 0 369 -53.5t111 -190.5q0 -75 -23.5 -155.5t-46.5 -158t-23 -147.5q0 -51 25.5 -73t85.5 -27l-27 -186 q-71 -6 -101 -33.5t-42 -99.5q-14 -88 -15 -220t-5 -174q-10 -86 -40.5 -140.5t-95.5 -86.5t-158.5 -43t-238.5 -8z" />
<glyph unicode="~" horiz-adv-x="1124" d="M119 680q45 130 133.5 217.5t189.5 87.5q81 0 221.5 -47t202.5 -47q48 0 74 19t53 75l181 -74q-50 -169 -122.5 -246t-174.5 -77q-79 0 -227.5 47t-205.5 47q-54 0 -88 -17.5t-71 -74.5z" />
<glyph unicode="&#xa1;" horiz-adv-x="614" d="M27 -410l53 375l139 694h322l-58 -694l-53 -375h-403zM213 891q0 99 56.5 153t170.5 54q178 0 178 -148q0 -101 -56.5 -155t-172.5 -54q-176 0 -176 150z" />
<glyph unicode="&#xa2;" horiz-adv-x="1097" d="M115 487q0 240 110 399t312 206l30 225h342l-30 -219q131 -21 239 -84l-47 -330l-254 10l-4 117q-4 29 -20 35q-35 14 -82 14q-92 0 -142.5 -91t-50.5 -271q0 -93 29 -136t94 -43q50 0 84 15q15 8 23 28l38 123l258 11l-45 -330q-122 -72 -284 -92l-27 -211h-342l31 229 q-262 76 -262 395z" />
<glyph unicode="&#xa3;" horiz-adv-x="1144" d="M57 223q40 16 60 26.5t44.5 31.5t37.5 49.5t26 74.5t23 113l4 33h-135l35 272h129l14 95q11 75 31 135t58.5 118t93.5 96t139.5 61.5t193.5 23.5q254 0 412 -152l-187 -207q-98 86 -219 86q-43 0 -72 -13.5t-44.5 -41.5t-23 -54t-13.5 -69l-13 -78h250l-37 -272h-241 q-12 -94 -55 -177t-111 -141h336q8 0 14 5t7.5 9t4.5 13l49 154h262l-57 -414h-1010z" />
<glyph unicode="&#xa4;" d="M2 176l182 182q-41 100 -41 213q0 111 43 201l-178 178l199 197l168 -168q103 59 237 59q141 0 236 -53l162 160l190 -193l-170 -170q39 -88 39 -202q0 -117 -49 -224l180 -178l-199 -196l-174 174q-97 -54 -227 -54q-127 0 -231 56q-135 -135 -174 -176zM434 571 q0 -92 43.5 -149t130.5 -57q82 0 126 58t44 148q0 96 -44 148.5t-130 52.5q-82 0 -126 -55t-44 -146z" />
<glyph unicode="&#xa5;" horiz-adv-x="1327" d="M123 1126l27 187h655l-25 -187l-135 -18l125 -250h23l194 250l-100 18l24 187h537l-27 -189l-88 -14q-25 -4 -53 -39l-293 -364h174l-41 -293h-252l-22 -172q-4 -22 0 -30t26 -9l220 -17l-27 -186h-877l25 186l209 15q21 1 28.5 9t10.5 32l22 172h-239l41 293h157 l-196 362q-10 16 -18.5 23.5t-26.5 11.5z" />
<glyph unicode="&#xa6;" horiz-adv-x="587" d="M43 -293l111 795h348l-111 -795h-348zM197 797l96 686h348l-96 -686h-348z" />
<glyph unicode="&#xa7;" horiz-adv-x="1189" d="M45 -215l41 295l260 -17l4 -106q0 -28 21 -37q45 -18 133 -18q74 0 112.5 24.5t38.5 67.5q0 25 -14.5 43.5t-41 30.5t-58.5 21t-72 19q-15 3 -23 5q-39 9 -63.5 16t-61 20t-60 26.5t-50.5 35.5t-42 47.5t-25.5 61.5t-10.5 79q0 71 28 133.5t66.5 103.5t94.5 83 q-41 32 -67 91t-26 120q0 97 40.5 170t112 116.5t161 65t194.5 21.5q134 0 252.5 -20t171.5 -44l-45 -315l-258 14l-4 100q0 13 -3.5 20t-16.5 11q-43 16 -115 16q-59 0 -99 -25.5t-40 -66.5q0 -20 13.5 -35t38.5 -26t56 -19.5t70 -18.5q7 -1 12 -2.5t10 -2.5 q37 -9 64 -17.5t62 -22.5t60.5 -29.5t51.5 -39t42.5 -51t27 -65.5t10.5 -82q0 -188 -172 -303q35 -29 56.5 -75.5t21.5 -99.5q0 -199 -143 -297t-400 -98q-136 0 -261.5 26t-154.5 50zM444 514q0 -36 37.5 -58t112.5 -42l119 -31q71 49 71 106q0 58 -120 91l-150 41 q-70 -52 -70 -107z" />
<glyph unicode="&#xa8;" horiz-adv-x="1024" d="M317 1331q0 82 54 132t137 50q67 0 105 -37t38 -100q0 -83 -52 -133.5t-136 -50.5q-66 0 -106 38t-40 101zM752 1331q0 82 53.5 132t136.5 50q67 0 105 -37t38 -100q0 -83 -52 -133.5t-136 -50.5q-66 0 -105.5 38t-39.5 101z" />
<glyph unicode="&#xa9;" horiz-adv-x="1587" d="M156 625q0 158 54.5 289t148.5 217.5t220 134t271 47.5q318 0 503 -179t185 -481q0 -204 -87 -361.5t-244.5 -243t-360.5 -85.5q-167 0 -299.5 50.5t-217 140t-129 209.5t-44.5 262zM348 627q0 -229 133 -359.5t369 -130.5q233 0 366.5 134.5t133.5 369.5 q0 237 -137.5 367.5t-362.5 130.5q-221 0 -361.5 -136.5t-140.5 -375.5zM485 645q0 -185 93 -292t292 -107q152 0 234 49v225h-115l-22 -110q-40 -19 -84 -19q-189 0 -189 250q0 138 44 196t132 58q50 0 97 -18l14 -111h125v235q-112 41 -229 41q-190 0 -291 -107.5 t-101 -289.5z" />
<glyph unicode="&#xaa;" horiz-adv-x="964" d="M174 842q0 63 11.5 125t39.5 123.5t68.5 108t103.5 75.5t140 29q112 0 190 -78l31 63h241q-29 -145 -34 -188l-54 -359q-3 -14 0.5 -18.5t18.5 -5.5l63 -10l-18 -132h-336l14 97l-8 4q-70 -64 -125 -90.5t-125 -26.5q-221 0 -221 283zM477 862q0 -37 8 -56.5t35 -19.5 q21 0 60.5 18.5t70.5 45.5l33 219q-42 29 -78 29q-37 0 -64.5 -27.5t-40.5 -68.5t-18.5 -76.5t-5.5 -63.5z" />
<glyph unicode="&#xab;" horiz-adv-x="991" d="M84 524l225 312h299l-209 -287q-15 -20 -8 -39l117 -299h-295zM506 524l225 312h299l-209 -287q-15 -20 -8 -39l117 -299h-295z" />
<glyph unicode="&#xac;" d="M227 522l39 283h805l-67 -477h-265l29 194h-541z" />
<glyph unicode="&#xad;" horiz-adv-x="636" d="M76 440l43 308h555l-43 -308h-555z" />
<glyph unicode="&#xae;" horiz-adv-x="942" d="M215 969q0 174 110.5 279.5t274.5 105.5q176 0 279.5 -101.5t103.5 -269.5q0 -170 -107.5 -276.5t-277.5 -106.5q-182 0 -282.5 103t-100.5 266zM324 971q0 -126 74 -198.5t202 -72.5t202.5 75t74.5 202q0 131 -77 203.5t-200 72.5q-119 0 -197.5 -76t-78.5 -206z M430 786v58l27 2q10 0 10 10v248q0 10 -10 10l-27 2v62h182q79 0 113.5 -31.5t34.5 -79.5q0 -39 -20 -65.5t-50 -36.5q27 -8 37 -39l25 -66q5 -9 16 -12l29 -4v-58h-135l-46 129q-5 13 -9 17t-17 4h-21v-78q0 -7 1.5 -8.5t9.5 -3.5l30 -2v-58h-180zM569 1008h29 q29 0 43 10.5t14 40.5q0 45 -53 45h-33v-96z" />
<glyph unicode="&#xaf;" horiz-adv-x="1024" d="M358 1196l35 242h662l-35 -242h-662z" />
<glyph unicode="&#xb0;" horiz-adv-x="583" d="M150 1339q0 124 83.5 200.5t204.5 76.5q95 0 155 -58.5t60 -154.5q0 -121 -82 -201t-202 -80q-97 0 -158 61t-61 156zM311 1356q0 -36 21.5 -60t56.5 -24q43 0 75 32.5t32 75.5q0 37 -22 61.5t-56 24.5q-40 0 -73.5 -33t-33.5 -77z" />
<glyph unicode="&#xb1;" d="M154 0l39 283h256l34 239h-256l39 283h256l39 274h291l-39 -274h258l-39 -283h-258l-35 -239h258l-39 -283h-804z" />
<glyph unicode="&#xb2;" horiz-adv-x="837" d="M96 717l27 186l369 348q6 6 23 21.5t23 21.5l19.5 19.5t19.5 20.5t15 19t12.5 20.5t6.5 19t3 20.5q0 37 -39 37q-35 0 -49 -22.5t-24 -79.5l-309 24q11 72 40 125t67.5 84t93 49.5t105.5 24.5t115 6q172 0 252 -56t80 -167q0 -73 -36.5 -129t-112.5 -129l-283 -273h119 q11 0 18 21l25 82h229l-45 -293h-764z" />
<glyph unicode="&#xb3;" horiz-adv-x="866" d="M94 842l178 172q95 -86 201 -86q52 0 80.5 23.5t28.5 60.5q0 41 -23 59.5t-57 18.5q-36 0 -103 -11l29 195l57 6q67 7 103.5 32.5t36.5 86.5q0 45 -43 45q-35 0 -48.5 -20t-19.5 -76l-315 22q31 291 413 291q336 0 336 -215q0 -102 -60 -165.5t-128 -78.5v-4 q66 -14 106.5 -61t40.5 -119q0 -67 -23 -121.5t-63 -90.5t-95.5 -60.5t-117.5 -35t-133 -10.5q-121 0 -224.5 38.5t-156.5 103.5z" />
<glyph unicode="&#xb4;" horiz-adv-x="1024" d="M436 1282l334 342l182 -201l-383 -282z" />
<glyph unicode="&#xb5;" horiz-adv-x="1318" d="M92 -360l203 1435h383l-96 -688q-16 -117 61 -117q66 0 145 45l107 760h383l-119 -839q-3 -18 1 -26t22 -11l96 -15l-25 -184h-450l18 115l-8 4q-105 -81 -195 -113q-49 -17 -106 -26l-23 -340h-397z" />
<glyph unicode="&#xb6;" horiz-adv-x="1398" d="M176 629q0 321 192 506.5t531 185.5h592l-29 -182l-139 -17q-22 -3 -28 -9.5t-9 -29.5l-147 -1044q-62 -434 -488 -434q-157 0 -275.5 41t-178.5 86l112 211q42 -29 134 -61t184 -32q99 0 153.5 54t71.5 170l152 1028h-115l-141 -987h-84q-231 0 -359.5 134.5 t-128.5 379.5z" />
<glyph unicode="&#xb7;" horiz-adv-x="542" d="M133 651q0 101 56.5 155t172.5 54q177 0 177 -149q0 -99 -57 -153t-171 -54q-178 0 -178 147z" />
<glyph unicode="&#xb8;" horiz-adv-x="1024" d="M233 -530l37 155q24 -8 68 -8q51 0 87 22t36 72q0 45 -31.5 61.5t-87.5 18.5l72 270l161 -16l-36 -139q149 -45 149 -191q0 -123 -94 -193.5t-225 -70.5q-39 0 -73 4.5t-48 9.5z" />
<glyph unicode="&#xb9;" horiz-adv-x="681" d="M129 717l21 151l100 9q15 2 20.5 6.5t8.5 19.5l77 529q3 24 -12 26l-106 29l22 153h467l-113 -737q-2 -14 2 -19.5t17 -6.5l100 -11l-20 -149h-584z" />
<glyph unicode="&#xba;" horiz-adv-x="907" d="M164 858q0 34 6 74q24 176 138.5 273.5t314.5 97.5q92 0 159.5 -24t106 -67.5t56.5 -97t18 -119.5q0 -192 -118 -314t-329 -122q-180 0 -266 80.5t-86 218.5zM463 856q0 -111 74 -111q45 0 75.5 41t44.5 148q7 51 7 76q0 58 -18 81t-52 23q-46 0 -77.5 -38t-47.5 -142 q-6 -47 -6 -78z" />
<glyph unicode="&#xbb;" horiz-adv-x="991" d="M51 211l203 299q13 21 4 39l-131 287h299l139 -312l-219 -313h-295zM473 211l203 299q13 21 4 39l-131 287h299l139 -312l-219 -313h-295z" />
<glyph unicode="&#xbc;" horiz-adv-x="2150" d="M225 575l21 152l100 8q15 1 20.5 6.5t8.5 20.5l78 528q3 24 -13 27l-106 29l22 153h467l-112 -737q-2 -14 1.5 -20t16.5 -7l100 -10l-20 -150h-584zM512 -25l938 1508h348l-936 -1508h-350zM1198 168l27 186l483 570h320l-80 -553h106l-29 -199h-104l-25 -172h-294 l22 168h-426zM1475 371h174l34 233h-8z" />
<glyph unicode="&#xbd;" horiz-adv-x="2150" d="M201 575l20 152l101 8q15 1 20 6.5t8 20.5l78 528q3 24 -12 27l-107 29l23 153h467l-113 -737q-2 -14 2 -20t17 -7l100 -10l-21 -150h-583zM473 -25l938 1508h348l-936 -1508h-350zM1249 0l27 186l369 349q7 6 26 24t26 24.5t22 21.5t20.5 23.5t13.5 21t11 24t3 22.5 q0 37 -38 37q-35 0 -49.5 -22.5t-24.5 -79.5l-309 24q11 72 40 125t67.5 84t93 49.5t105.5 24.5t115 6q172 0 252 -56t80 -167q0 -73 -36.5 -129t-112.5 -129l-283 -273h119q11 0 18 21l25 82h229l-45 -293h-764z" />
<glyph unicode="&#xbe;" horiz-adv-x="2150" d="M174 700l178 172q95 -86 201 -86q52 0 80.5 23.5t28.5 60.5q0 41 -23 59.5t-57 18.5q-42 0 -103 -10l29 195l57 6q67 7 103.5 32t36.5 86q0 46 -43 46q-35 0 -48.5 -20t-19.5 -77l-315 23q31 291 413 291q336 0 336 -215q0 -102 -60 -165.5t-128 -78.5v-4 q66 -14 106.5 -61t40.5 -119q0 -67 -23 -121.5t-63 -90.5t-95.5 -60.5t-117.5 -35t-133 -10.5q-122 0 -225.5 38.5t-155.5 102.5zM582 -25l938 1508h348l-936 -1508h-350zM1266 168l26 186l484 570h319l-80 -553h107l-29 -199h-104l-25 -172h-295l23 168h-426zM1542 371h174 l35 233h-8z" />
<glyph unicode="&#xbf;" d="M51 -16q0 95 29.5 177t89.5 153t163 120t240 68l23 157h383l-53 -378q-47 -3 -80.5 -6.5t-86 -12t-89 -20.5t-78.5 -33.5t-68 -48.5t-43.5 -67.5t-17.5 -90.5q0 -56 29 -79t83 -23q79 0 123 12q18 6 26 14.5t11 26.5l27 119l315 24l-55 -399q-290 -107 -506 -107 q-80 0 -145.5 10.5t-126.5 38t-102.5 71t-66 113.5t-24.5 161zM621 891q0 99 56.5 153t170.5 54q178 0 178 -148q0 -101 -56.5 -155t-172.5 -54q-176 0 -176 150z" />
<glyph unicode="&#xc0;" horiz-adv-x="1579" d="M-20 0l26 180l94 23q40 10 54 39l608 1241h430l258 -1245q3 -17 12.5 -23.5t32.5 -11.5l90 -23l-26 -180h-719l26 180l162 19l-27 155h-460l-68 -155l156 -19l-27 -180h-622zM649 618h320l-80 465h-21zM723 1739l147 235l412 -241l-104 -162z" />
<glyph unicode="&#xc1;" horiz-adv-x="1579" d="M-20 0l26 180l94 23q40 10 54 39l608 1241h430l258 -1245q3 -17 12.5 -23.5t32.5 -11.5l90 -23l-26 -180h-719l26 180l162 19l-27 155h-460l-68 -155l156 -19l-27 -180h-622zM649 618h320l-80 465h-21zM717 1747l444 227l101 -245l-471 -158z" />
<glyph unicode="&#xc2;" horiz-adv-x="1579" d="M-20 0l26 180l94 23q40 10 54 39l608 1241h430l258 -1245q3 -17 12.5 -23.5t32.5 -11.5l90 -23l-26 -180h-719l26 180l162 19l-27 155h-460l-68 -155l156 -19l-27 -180h-622zM618 1706l287 240h238l217 -240l-141 -135l-220 164l-264 -164zM649 618h320l-80 465h-21z" />
<glyph unicode="&#xc3;" horiz-adv-x="1579" d="M-20 0l26 180l94 23q40 10 54 39l608 1241h430l258 -1245q3 -17 12.5 -23.5t32.5 -11.5l90 -23l-26 -180h-719l26 180l162 19l-27 155h-460l-68 -155l156 -19l-27 -180h-622zM592 1686l74 116q33 54 71 79.5t92 25.5q63 0 312 -56q9 -3 18 0q12 4 19 13l41 53l151 -90 l-59 -94q-46 -71 -82.5 -103.5t-87.5 -32.5q-69 0 -209 39l-103 27q-24 4 -36 -8l-62 -58zM649 618h320l-80 465h-21z" />
<glyph unicode="&#xc4;" horiz-adv-x="1579" d="M-20 0l26 180l94 23q40 10 54 39l608 1241h430l258 -1245q3 -17 12.5 -23.5t32.5 -11.5l90 -23l-26 -180h-719l26 180l162 19l-27 155h-460l-68 -155l156 -19l-27 -180h-622zM612 1737q0 82 54 132t137 50q66 0 104.5 -37t38.5 -100q0 -83 -53 -134t-135 -51 q-67 0 -106.5 38.5t-39.5 101.5zM649 618h320l-80 465h-21zM1047 1737q0 82 53.5 132t136.5 50q66 0 104.5 -37t38.5 -100q0 -83 -53 -134t-135 -51q-67 0 -106 38t-39 102z" />
<glyph unicode="&#xc5;" horiz-adv-x="1579" d="M-20 0l26 180l94 23q40 10 54 39l608 1241q-6 24 -6 51q0 117 78 185.5t182 68.5q92 0 148.5 -52.5t56.5 -140.5q0 -62 -29 -118l258 -1239q3 -17 12.5 -23.5t32.5 -11.5l90 -23l-26 -180h-719l26 180l162 19l-27 155h-460l-68 -155l156 -19l-27 -180h-622zM649 618h320 l-80 465h-21zM915 1554q0 -63 64 -63q37 0 62.5 21t25.5 69q0 61 -66 61q-86 0 -86 -88z" />
<glyph unicode="&#xc6;" horiz-adv-x="2048" d="M-20 0l24 178l90 23q15 4 22 6.5t16.5 10.5t17.5 22l604 1038l-148 22l25 183h1468l-65 -459l-269 10l-6 156q0 27 -33 27h-229l-47 -345h434l-39 -276h-434l-47 -332h274q18 0 24.5 4t12.5 19l58 180h268l-66 -467h-1142l24 180l131 15q22 3 29 10.5t10 30.5l51 360 h-362l-223 -397l161 -19l-24 -180h-610zM819 872h258l47 345h-110z" />
<glyph unicode="&#xc7;" horiz-adv-x="1382" d="M115 616q0 158 35 294t106 246.5t173.5 189t243.5 121t310 42.5q126 0 256 -31.5t205 -86.5l-60 -447l-270 23l-4 190q0 24 -7 34t-22 15q-44 15 -131 15q-199 0 -315.5 -148t-116.5 -432q0 -188 75 -285.5t212 -97.5q120 0 164 16q24 11 32 41l60 199h266l-59 -424 q-85 -48 -209.5 -77.5t-253.5 -35.5l-19 -71q150 -46 150 -191q0 -123 -94.5 -193.5t-225.5 -70.5q-39 0 -73 4.5t-48 9.5l-14 5l37 155q24 -8 68 -8q51 0 87 22t36 72q0 45 -31.5 61.5t-87.5 18.5l49 189q-265 25 -394.5 192t-129.5 444z" />
<glyph unicode="&#xc8;" horiz-adv-x="1273" d="M16 0l25 180l129 15q22 3 29 10.5t10 30.5l141 1009q3 24 -1.5 32t-24.5 9l-127 14l24 183h1104l-63 -459l-271 10l-6 156q-2 15 -9 21t-24 6h-225l-45 -336h432l-39 -277h-432l-45 -340h268q18 0 24.5 4t12.5 19l55 180h271l-64 -467h-1149zM557 1739l148 235l411 -241 l-104 -162z" />
<glyph unicode="&#xc9;" horiz-adv-x="1273" d="M16 0l25 180l129 15q22 3 29 10.5t10 30.5l141 1009q3 24 -1.5 32t-24.5 9l-127 14l24 183h1104l-63 -459l-271 10l-6 156q-2 15 -9 21t-24 6h-225l-45 -336h432l-39 -277h-432l-45 -340h268q18 0 24.5 4t12.5 19l55 180h271l-64 -467h-1149zM551 1747l444 227l101 -245 l-471 -158z" />
<glyph unicode="&#xca;" horiz-adv-x="1273" d="M16 0l25 180l129 15q22 3 29 10.5t10 30.5l141 1009q3 24 -1.5 32t-24.5 9l-127 14l24 183h1104l-63 -459l-271 10l-6 156q-2 15 -9 21t-24 6h-225l-45 -336h432l-39 -277h-432l-45 -340h268q18 0 24.5 4t12.5 19l55 180h271l-64 -467h-1149zM453 1706l286 240h238 l217 -240l-141 -135l-219 164l-265 -164z" />
<glyph unicode="&#xcb;" horiz-adv-x="1273" d="M16 0l25 180l129 15q22 3 29 10.5t10 30.5l141 1009q3 24 -1.5 32t-24.5 9l-127 14l24 183h1104l-63 -459l-271 10l-6 156q-2 15 -9 21t-24 6h-225l-45 -336h432l-39 -277h-432l-45 -340h268q18 0 24.5 4t12.5 19l55 180h271l-64 -467h-1149zM446 1737q0 82 54 132 t137 50q66 0 104.5 -37t38.5 -100q0 -83 -53 -134t-135 -51q-67 0 -106.5 38.5t-39.5 101.5zM881 1737q0 82 53.5 132t136.5 50q66 0 104.5 -37t38.5 -100q0 -83 -53 -134t-135 -51q-67 0 -106 38t-39 102z" />
<glyph unicode="&#xcc;" horiz-adv-x="804" d="M2 0l21 180l149 15q21 1 27.5 9t9.5 32l143 1007q3 24 -2 32t-26 9l-144 14l27 185h749l-26 -185l-156 -16q-23 -3 -28.5 -9t-8.5 -30l-141 -1005q-3 -26 0.5 -32t24.5 -9l153 -17l-22 -180h-750zM334 1739l147 235l412 -241l-105 -162z" />
<glyph unicode="&#xcd;" horiz-adv-x="804" d="M2 0l21 180l149 15q21 1 27.5 9t9.5 32l143 1007q3 24 -2 32t-26 9l-144 14l27 185h749l-26 -185l-156 -16q-23 -3 -28.5 -9t-8.5 -30l-141 -1005q-3 -26 0.5 -32t24.5 -9l153 -17l-22 -180h-750zM328 1747l444 227l100 -245l-471 -158z" />
<glyph unicode="&#xce;" horiz-adv-x="804" d="M2 0l21 180l149 15q21 1 27.5 9t9.5 32l143 1007q3 24 -2 32t-26 9l-144 14l27 185h749l-26 -185l-156 -16q-23 -3 -28.5 -9t-8.5 -30l-141 -1005q-3 -26 0.5 -32t24.5 -9l153 -17l-22 -180h-750zM229 1706l287 240h238l217 -240l-142 -135l-219 164l-264 -164z" />
<glyph unicode="&#xcf;" horiz-adv-x="804" d="M2 0l21 180l149 15q21 1 27.5 9t9.5 32l143 1007q3 24 -2 32t-26 9l-144 14l27 185h749l-26 -185l-156 -16q-23 -3 -28.5 -9t-8.5 -30l-141 -1005q-3 -26 0.5 -32t24.5 -9l153 -17l-22 -180h-750zM223 1737q0 82 54 132t137 50q66 0 104.5 -37t38.5 -100q0 -83 -53 -134 t-135 -51q-67 0 -106.5 38.5t-39.5 101.5zM657 1737q0 82 54 132t137 50q66 0 104.5 -37t38.5 -100q0 -83 -53 -134t-135 -51q-67 0 -106.5 38.5t-39.5 101.5z" />
<glyph unicode="&#xd0;" horiz-adv-x="1519" d="M37 0l26 184l130 15q21 1 28 9t10 32l50 356h-148l39 266h145l54 383q3 22 -2 30t-25 11l-127 14l25 183h682q321 0 475.5 -155.5t154.5 -444.5q0 -152 -33 -284t-102 -242.5t-170.5 -189.5t-245.5 -123t-319 -44h-647zM618 264h52q98 0 180 33.5t138.5 91t96 135 t58 165.5t18.5 183q0 180 -82 262.5t-266 82.5h-65l-50 -355h234l-39 -266h-229z" />
<glyph unicode="&#xd1;" horiz-adv-x="1658" d="M16 0l25 180l129 15q22 3 29 10.5t10 30.5l141 1011q3 25 -1 32.5t-25 8.5l-123 15l20 180h559l447 -975l104 735q3 24 -1.5 32t-24.5 9l-125 14l24 185h598l-24 -185l-138 -16q-21 -3 -26 -9t-8 -30l-176 -1243h-396l-450 969l-101 -731q-3 -26 0.5 -32t26.5 -9l131 -17 l-23 -180h-602zM670 1686l73 116q33 54 71.5 79.5t92.5 25.5q63 0 312 -56q9 -3 18 0q11 4 18 13l41 53l152 -90l-59 -94q-46 -71 -82.5 -103.5t-87.5 -32.5q-69 0 -209 39l-103 27q-25 4 -37 -8l-61 -58z" />
<glyph unicode="&#xd2;" horiz-adv-x="1556" d="M119 561q0 202 53.5 373t157.5 300t268 202t373 73q159 0 278.5 -45t191 -127t106 -188.5t34.5 -237.5q0 -440 -225 -688t-629 -248q-161 0 -280 42t-190 121t-104.5 184t-33.5 239zM526 598q0 -169 65 -242t195 -73q77 0 139 26.5t114 86.5t85.5 166.5t46.5 256.5 q5 62 5 72q0 311 -250 311q-166 0 -269.5 -129.5t-128.5 -406.5q-2 -23 -2 -68zM709 1739l147 235l412 -241l-105 -162z" />
<glyph unicode="&#xd3;" horiz-adv-x="1556" d="M119 561q0 202 53.5 373t157.5 300t268 202t373 73q159 0 278.5 -45t191 -127t106 -188.5t34.5 -237.5q0 -440 -225 -688t-629 -248q-161 0 -280 42t-190 121t-104.5 184t-33.5 239zM526 598q0 -169 65 -242t195 -73q77 0 139 26.5t114 86.5t85.5 166.5t46.5 256.5 q5 62 5 72q0 311 -250 311q-166 0 -269.5 -129.5t-128.5 -406.5q-2 -23 -2 -68zM702 1747l445 227l100 -245l-471 -158z" />
<glyph unicode="&#xd4;" horiz-adv-x="1556" d="M119 561q0 202 53.5 373t157.5 300t268 202t373 73q159 0 278.5 -45t191 -127t106 -188.5t34.5 -237.5q0 -440 -225 -688t-629 -248q-161 0 -280 42t-190 121t-104.5 184t-33.5 239zM526 598q0 -169 65 -242t195 -73q77 0 139 26.5t114 86.5t85.5 166.5t46.5 256.5 q5 62 5 72q0 311 -250 311q-166 0 -269.5 -129.5t-128.5 -406.5q-2 -23 -2 -68zM604 1706l287 240h237l218 -240l-142 -135l-219 164l-264 -164z" />
<glyph unicode="&#xd5;" horiz-adv-x="1556" d="M119 561q0 202 53.5 373t157.5 300t268 202t373 73q159 0 278.5 -45t191 -127t106 -188.5t34.5 -237.5q0 -440 -225 -688t-629 -248q-161 0 -280 42t-190 121t-104.5 184t-33.5 239zM526 598q0 -169 65 -242t195 -73q77 0 139 26.5t114 86.5t85.5 166.5t46.5 256.5 q5 62 5 72q0 311 -250 311q-166 0 -269.5 -129.5t-128.5 -406.5q-2 -23 -2 -68zM578 1686l73 116q33 54 71.5 79.5t92.5 25.5q62 0 311 -56q10 -3 19 0q11 4 18 13l41 53l152 -90l-60 -94q-46 -71 -82.5 -103.5t-87.5 -32.5q-68 0 -208 39l-103 27q-25 4 -37 -8l-61 -58z " />
<glyph unicode="&#xd6;" horiz-adv-x="1556" d="M119 561q0 202 53.5 373t157.5 300t268 202t373 73q159 0 278.5 -45t191 -127t106 -188.5t34.5 -237.5q0 -440 -225 -688t-629 -248q-161 0 -280 42t-190 121t-104.5 184t-33.5 239zM526 598q0 -169 65 -242t195 -73q77 0 139 26.5t114 86.5t85.5 166.5t46.5 256.5 q5 62 5 72q0 311 -250 311q-166 0 -269.5 -129.5t-128.5 -406.5q-2 -23 -2 -68zM598 1737q0 82 53.5 132t136.5 50q66 0 105 -37t39 -100q0 -82 -53 -133.5t-136 -51.5q-67 0 -106 38t-39 102zM1032 1737q0 82 54 132t137 50q66 0 104.5 -37t38.5 -100q0 -83 -53 -134 t-135 -51q-67 0 -106.5 38.5t-39.5 101.5z" />
<glyph unicode="&#xd7;" d="M217 465l223 194l-168 195l234 205l168 -195l221 195l176 -205l-221 -195l166 -194l-234 -205l-168 195l-221 -195z" />
<glyph unicode="&#xd8;" horiz-adv-x="1556" d="M119 561q0 202 53.5 373t157.5 300t268 202t373 73q71 0 123 -8l67 127h381l-139 -256q178 -158 178 -461q0 -440 -225 -688t-629 -248q-50 0 -111 7l-81 -144h-381l141 264q-176 146 -176 459zM526 598q0 -100 21 -164l418 766q-6 0 -19.5 1t-19.5 1 q-166 0 -269.5 -129.5t-128.5 -406.5q-2 -23 -2 -68zM748 283h38q77 0 139 26.5t114 86.5t85.5 166.5t46.5 256.5q5 62 5 72q0 81 -19 143z" />
<glyph unicode="&#xd9;" horiz-adv-x="1589" d="M190 1300l25 183h711l-25 -183l-139 -16q-22 -3 -27 -9t-8 -30l-88 -614q-12 -89 -12 -158q0 -96 41.5 -143t150.5 -47q75 0 127.5 19.5t87.5 64t55 107.5t33 157l86 614q3 24 -1.5 32t-24.5 9l-125 14l24 183h652l-25 -183l-139 -16q-23 -3 -28 -9t-7 -30l-98 -692 q-43 -302 -204 -440t-439 -138q-280 0 -418.5 110.5t-138.5 344.5q0 55 10 133l94 682q3 24 -1.5 32t-23.5 9zM754 1739l147 235l412 -241l-105 -162z" />
<glyph unicode="&#xda;" horiz-adv-x="1589" d="M190 1300l25 183h711l-25 -183l-139 -16q-22 -3 -27 -9t-8 -30l-88 -614q-12 -89 -12 -158q0 -96 41.5 -143t150.5 -47q75 0 127.5 19.5t87.5 64t55 107.5t33 157l86 614q3 24 -1.5 32t-24.5 9l-125 14l24 183h652l-25 -183l-139 -16q-23 -3 -28 -9t-7 -30l-98 -692 q-43 -302 -204 -440t-439 -138q-280 0 -418.5 110.5t-138.5 344.5q0 55 10 133l94 682q3 24 -1.5 32t-23.5 9zM748 1747l444 227l100 -245l-471 -158z" />
<glyph unicode="&#xdb;" horiz-adv-x="1589" d="M190 1300l25 183h711l-25 -183l-139 -16q-22 -3 -27 -9t-8 -30l-88 -614q-12 -89 -12 -158q0 -96 41.5 -143t150.5 -47q75 0 127.5 19.5t87.5 64t55 107.5t33 157l86 614q3 24 -1.5 32t-24.5 9l-125 14l24 183h652l-25 -183l-139 -16q-23 -3 -28 -9t-7 -30l-98 -692 q-43 -302 -204 -440t-439 -138q-280 0 -418.5 110.5t-138.5 344.5q0 55 10 133l94 682q3 24 -1.5 32t-23.5 9zM629 1706l286 240h238l217 -240l-141 -135l-219 164l-265 -164z" />
<glyph unicode="&#xdc;" horiz-adv-x="1589" d="M190 1300l25 183h711l-25 -183l-139 -16q-22 -3 -27 -9t-8 -30l-88 -614q-12 -89 -12 -158q0 -96 41.5 -143t150.5 -47q75 0 127.5 19.5t87.5 64t55 107.5t33 157l86 614q3 24 -1.5 32t-24.5 9l-125 14l24 183h652l-25 -183l-139 -16q-23 -3 -28 -9t-7 -30l-98 -692 q-43 -302 -204 -440t-439 -138q-280 0 -418.5 110.5t-138.5 344.5q0 55 10 133l94 682q3 24 -1.5 32t-23.5 9zM643 1737q0 82 54 132t137 50q66 0 104.5 -37t38.5 -100q0 -82 -53 -133.5t-136 -51.5q-67 0 -106 38t-39 102zM1077 1737q0 82 54 132t137 50q66 0 104.5 -37 t38.5 -100q0 -83 -53 -134t-135 -51q-67 0 -106.5 38.5t-39.5 101.5z" />
<glyph unicode="&#xdd;" horiz-adv-x="1427" d="M152 1303l26 180h709l-27 -180l-164 -19l146 -414h22l256 414l-153 19l26 180h592l-26 -180l-89 -23q-44 -10 -55 -39l-448 -698l-43 -305q-4 -22 0 -30t26 -9l219 -17l-24 -182h-877l25 182l209 15q20 1 27 9t10 32l43 303l-299 704q-11 27 -45 35zM680 1747l444 227 l101 -245l-471 -158z" />
<glyph unicode="&#xde;" horiz-adv-x="1308" d="M16 0l27 182l129 15q22 3 29 10.5t10 30.5l139 1005q3 24 -2 32t-26 9l-123 14l22 185h711l-25 -185l-145 -18q-18 -3 -23.5 -9t-7.5 -20l-4 -28h158q234 0 344 -101t110 -282q0 -246 -165.5 -376t-458.5 -130h-109l-12 -94q-3 -26 0.5 -33t23.5 -8l287 -17l-26 -182 h-863zM643 596h43q37 0 67 3.5t66 16.5t60.5 35.5t41.5 64.5t17 99q0 139 -184 139h-62z" />
<glyph unicode="&#xdf;" horiz-adv-x="1462" d="M41 -434l219 1536q12 82 37.5 149t60.5 115t82.5 84.5t97.5 59t110.5 36.5t118 19.5t122.5 5.5q123 0 219 -27t152.5 -72t85 -98.5t28.5 -111.5q0 -83 -34 -147t-91 -126q-14 -15 -42 -43t-41 -42t-24.5 -33.5t-11.5 -36.5t7.5 -32.5t26.5 -33t32 -28t45 -33t45 -31.5 q35 -26 61 -51t52 -61t39.5 -81.5t13.5 -99.5q0 -180 -128.5 -294t-354.5 -114q-130 0 -231 24.5t-146 51.5l41 299l258 -16l6 -115q2 -22 7 -30t22 -11q32 -4 57 -4q58 0 89.5 31t31.5 78q0 21 -8.5 40.5t-18.5 33t-32.5 31.5t-36 27t-45.5 28.5t-45 27.5q-78 51 -121 107 t-43 143q0 54 18 103t38.5 78.5t55.5 70.5q4 5 29 33t31.5 36t24 32t23 38t11.5 36t6 44q0 45 -36 76.5t-101 31.5q-96 0 -151 -54.5t-76 -194.5l-209 -1485h-377z" />
<glyph unicode="&#xe0;" horiz-adv-x="1269" d="M86 397q0 96 16.5 190t55.5 187.5t97 164.5t148 115t201 44q162 0 275 -119l43 96h317q-44 -226 -51 -278l-78 -561q-3 -23 1 -29.5t26 -9.5l92 -15l-25 -182h-452l22 154l-10 4q-102 -98 -182.5 -140.5t-180.5 -42.5q-315 0 -315 422zM481 426q0 -68 17.5 -102.5 t62.5 -34.5q37 0 98.5 35t114.5 84l49 350q-66 55 -135 55q-59 0 -102.5 -43t-64.5 -109t-30.5 -125t-9.5 -110zM532 1448l222 180l260 -366l-156 -121z" />
<glyph unicode="&#xe1;" horiz-adv-x="1269" d="M86 397q0 96 16.5 190t55.5 187.5t97 164.5t148 115t201 44q162 0 275 -119l43 96h317q-44 -226 -51 -278l-78 -561q-3 -23 1 -29.5t26 -9.5l92 -15l-25 -182h-452l22 154l-10 4q-102 -98 -182.5 -140.5t-180.5 -42.5q-315 0 -315 422zM481 426q0 -68 17.5 -102.5 t62.5 -34.5q37 0 98.5 35t114.5 84l49 350q-66 55 -135 55q-59 0 -102.5 -43t-64.5 -109t-30.5 -125t-9.5 -110zM502 1282l334 342l182 -201l-383 -282z" />
<glyph unicode="&#xe2;" horiz-adv-x="1269" d="M86 397q0 96 16.5 190t55.5 187.5t97 164.5t148 115t201 44q162 0 275 -119l43 96h317q-44 -226 -51 -278l-78 -561q-3 -23 1 -29.5t26 -9.5l92 -15l-25 -182h-452l22 154l-10 4q-102 -98 -182.5 -140.5t-180.5 -42.5q-315 0 -315 422zM377 1262l282 272h238l209 -272 l-152 -123l-196 180l-250 -180zM481 426q0 -68 17.5 -102.5t62.5 -34.5q37 0 98.5 35t114.5 84l49 350q-66 55 -135 55q-59 0 -102.5 -43t-64.5 -109t-30.5 -125t-9.5 -110z" />
<glyph unicode="&#xe3;" horiz-adv-x="1269" d="M86 397q0 96 16.5 190t55.5 187.5t97 164.5t148 115t201 44q162 0 275 -119l43 96h317q-44 -226 -51 -278l-78 -561q-3 -23 1 -29.5t26 -9.5l92 -15l-25 -182h-452l22 154l-10 4q-102 -98 -182.5 -140.5t-180.5 -42.5q-315 0 -315 422zM385 1249l78 115q68 111 158 111 q46 0 151 -31q148 -43 164 -43q11 0 25 14l55 60l147 -84l-59 -95q-46 -71 -81 -103t-83 -32q-53 0 -197 43q-16 5 -48 15.5t-53 16t-32 5.5q-13 0 -35 -18l-61 -58zM481 426q0 -68 17.5 -102.5t62.5 -34.5q37 0 98.5 35t114.5 84l49 350q-66 55 -135 55q-59 0 -102.5 -43 t-64.5 -109t-30.5 -125t-9.5 -110z" />
<glyph unicode="&#xe4;" horiz-adv-x="1269" d="M86 397q0 96 16.5 190t55.5 187.5t97 164.5t148 115t201 44q162 0 275 -119l43 96h317q-44 -226 -51 -278l-78 -561q-3 -23 1 -29.5t26 -9.5l92 -15l-25 -182h-452l22 154l-10 4q-102 -98 -182.5 -140.5t-180.5 -42.5q-315 0 -315 422zM403 1331q0 82 54 132t137 50 q67 0 105 -37t38 -100q0 -83 -52 -133.5t-136 -50.5q-66 0 -106 38t-40 101zM481 426q0 -68 17.5 -102.5t62.5 -34.5q37 0 98.5 35t114.5 84l49 350q-66 55 -135 55q-59 0 -102.5 -43t-64.5 -109t-30.5 -125t-9.5 -110zM838 1331q0 82 53.5 132t136.5 50q67 0 105 -37 t38 -100q0 -83 -52 -133.5t-136 -50.5q-66 0 -105.5 38t-39.5 101z" />
<glyph unicode="&#xe5;" horiz-adv-x="1269" d="M86 397q0 96 16.5 190t55.5 187.5t97 164.5t148 115t201 44q162 0 275 -119l43 96h317q-44 -226 -51 -278l-78 -561q-3 -23 1 -29.5t26 -9.5l92 -15l-25 -182h-452l22 154l-10 4q-102 -98 -182.5 -140.5t-180.5 -42.5q-315 0 -315 422zM481 426q0 -68 17.5 -102.5 t62.5 -34.5q37 0 98.5 35t114.5 84l49 350q-66 55 -135 55q-59 0 -102.5 -43t-64.5 -109t-30.5 -125t-9.5 -110zM541 1339q0 114 76 181t178 67q89 0 143.5 -50.5t54.5 -135.5q0 -107 -73.5 -176.5t-180.5 -69.5q-89 0 -143.5 51t-54.5 133zM696 1360q0 -62 62 -62 q37 0 61.5 20.5t24.5 67.5q0 60 -64 60q-37 0 -60.5 -21t-23.5 -65z" />
<glyph unicode="&#xe6;" horiz-adv-x="1742" d="M86 397q0 96 16.5 190t55.5 187.5t97 164.5t148 115t201 44q94 0 189 -38.5t172 -119.5q185 158 444 158q157 0 250.5 -74t93.5 -211q0 -60 -21.5 -111.5t-55.5 -88t-86 -67t-101.5 -49.5t-115 -35.5t-113.5 -25t-109 -16.5q7 -168 170 -168q113 0 299 74l53 -238 q-248 -113 -454 -113q-292 0 -404 205q-123 -113 -217.5 -159t-196.5 -46q-315 0 -315 422zM481 426q0 -68 17.5 -102.5t62.5 -34.5q35 0 91 30.5t106 75.5q0 57 2 86q9 158 63 277q-66 55 -135 55q-59 0 -102.5 -43t-64.5 -109t-30.5 -125t-9.5 -110zM1161 633 q31 4 65.5 12t80.5 23.5t75 42t29 59.5q0 31 -20.5 47.5t-55.5 16.5q-60 0 -108 -50.5t-66 -150.5z" />
<glyph unicode="&#xe7;" horiz-adv-x="1044" d="M82 434q0 160 48.5 287.5t134.5 209t201 124.5t251 43q113 0 215 -30t153 -71l-49 -350l-254 10l-6 138q0 29 -20 34q-37 11 -74 11q-87 0 -148 -89.5t-61 -279.5q0 -121 46 -169t126 -48q20 0 41 1.5t43 6t38 7.5t40 10t33.5 10t34.5 11t28 9l58 -223 q-144 -85 -338 -106l-19 -74q150 -46 150 -191q0 -123 -94.5 -193.5t-225.5 -70.5q-39 0 -73 4.5t-48 9.5l-14 5l37 155q24 -8 67 -8q51 0 87 22t36 72q0 45 -31 61.5t-87 18.5l49 189q-190 22 -282.5 142t-92.5 312z" />
<glyph unicode="&#xe8;" horiz-adv-x="1064" d="M82 420q0 136 33.5 248.5t92 191.5t138.5 133t172 79.5t193 25.5q175 0 269.5 -74t94.5 -213q0 -79 -34 -142.5t-88.5 -105.5t-135.5 -73t-162.5 -48t-181.5 -28q7 -162 170 -162q111 0 299 74l53 -238q-257 -113 -458 -113q-122 0 -212 34t-142 96t-76.5 140t-24.5 175z M479 633q254 35 254 137q0 31 -20.5 47.5t-55.5 16.5q-59 0 -109 -51.5t-69 -149.5zM479 1448l221 180l261 -366l-156 -121z" />
<glyph unicode="&#xe9;" horiz-adv-x="1064" d="M82 420q0 136 33.5 248.5t92 191.5t138.5 133t172 79.5t193 25.5q175 0 269.5 -74t94.5 -213q0 -79 -34 -142.5t-88.5 -105.5t-135.5 -73t-162.5 -48t-181.5 -28q7 -162 170 -162q111 0 299 74l53 -238q-257 -113 -458 -113q-122 0 -212 34t-142 96t-76.5 140t-24.5 175z M449 1282l333 342l183 -201l-383 -282zM479 633q254 35 254 137q0 31 -20.5 47.5t-55.5 16.5q-59 0 -109 -51.5t-69 -149.5z" />
<glyph unicode="&#xea;" horiz-adv-x="1064" d="M82 420q0 136 33.5 248.5t92 191.5t138.5 133t172 79.5t193 25.5q175 0 269.5 -74t94.5 -213q0 -79 -34 -142.5t-88.5 -105.5t-135.5 -73t-162.5 -48t-181.5 -28q7 -162 170 -162q111 0 299 74l53 -238q-257 -113 -458 -113q-122 0 -212 34t-142 96t-76.5 140t-24.5 175z M324 1262l282 272h238l209 -272l-152 -123l-196 180l-250 -180zM479 633q254 35 254 137q0 31 -20.5 47.5t-55.5 16.5q-59 0 -109 -51.5t-69 -149.5z" />
<glyph unicode="&#xeb;" horiz-adv-x="1064" d="M82 420q0 136 33.5 248.5t92 191.5t138.5 133t172 79.5t193 25.5q175 0 269.5 -74t94.5 -213q0 -79 -34 -142.5t-88.5 -105.5t-135.5 -73t-162.5 -48t-181.5 -28q7 -162 170 -162q111 0 299 74l53 -238q-257 -113 -458 -113q-122 0 -212 34t-142 96t-76.5 140t-24.5 175z M324 1331q0 82 53.5 132t136.5 50q67 0 105 -37t38 -100q0 -83 -52 -133.5t-136 -50.5q-66 0 -105.5 38t-39.5 101zM479 633q254 35 254 137q0 31 -20.5 47.5t-55.5 16.5q-59 0 -109 -51.5t-69 -149.5zM758 1331q0 82 53.5 132t136.5 50q67 0 105.5 -37t38.5 -100 q0 -83 -52.5 -133.5t-136.5 -50.5q-66 0 -105.5 38t-39.5 101z" />
<glyph unicode="&#xec;" horiz-adv-x="679" d="M115 12l53 301l68 492q6 34 -21 43l-96 39l26 188h504l-117 -837q-3 -26 0.5 -32t26.5 -9l84 -15l-22 -182h-500zM195 1448l221 180l260 -366l-156 -121z" />
<glyph unicode="&#xed;" horiz-adv-x="679" d="M115 12l53 301l68 492q6 34 -21 43l-96 39l26 188h504l-117 -837q-3 -26 0.5 -32t26.5 -9l84 -15l-22 -182h-500zM164 1282l334 342l182 -201l-383 -282z" />
<glyph unicode="&#xee;" horiz-adv-x="679" d="M59 1262l263 272h237l189 -272l-152 -123l-176 180l-230 -180zM115 12l53 301l68 492q6 34 -21 43l-96 39l26 188h504l-117 -837q-3 -26 0.5 -32t26.5 -9l84 -15l-22 -182h-500z" />
<glyph unicode="&#xef;" horiz-adv-x="679" d="M68 1331q0 82 53.5 132t136.5 50q67 0 105 -37t38 -100q0 -83 -52 -133.5t-136 -50.5q-66 0 -105.5 38t-39.5 101zM115 12l53 301l68 492q6 34 -21 43l-96 39l26 188h504l-117 -837q-3 -26 0.5 -32t26.5 -9l84 -15l-22 -182h-500zM465 1331q0 82 53.5 132t136.5 50 q67 0 105.5 -37t38.5 -100q0 -83 -52.5 -133.5t-136.5 -50.5q-66 0 -105.5 38t-39.5 101z" />
<glyph unicode="&#xf0;" horiz-adv-x="1239" d="M78 424q0 121 34.5 230.5t100.5 196t172 138t238 51.5q117 0 229 -53l12 12q-27 59 -83 111.5t-122 89.5t-123 61.5t-108 38.5l182 314q181 -43 303 -125l252 160l135 -236l-192 -117q135 -200 135 -487q0 -196 -39.5 -347.5t-121 -261.5t-213.5 -167.5t-310 -57.5 q-237 0 -359 120t-122 329zM479 408q0 -175 127 -175q46 0 83.5 23t71 77.5t55 157.5t28.5 250q-74 50 -154 50q-45 0 -80.5 -16t-58 -46t-37.5 -65t-22.5 -81.5t-10 -86.5t-2.5 -88z" />
<glyph unicode="&#xf1;" horiz-adv-x="1271" d="M12 0l25 184l84 13q20 3 27 10.5t10 30.5l78 567q6 35 -19 43l-96 39l26 188h465l-20 -147l8 -4q51 44 81 67.5t77.5 52.5t96.5 41.5t106 12.5q135 0 196 -89t37 -264l-72 -507q-3 -26 0.5 -32t24.5 -9l94 -15l-24 -182h-500l-4 10l41 258l59 424q11 84 -45 84 q-51 0 -176 -102l-60 -436q-3 -26 0.5 -32t26.5 -9l80 -15l-25 -182h-602zM344 1249l78 115q68 111 158 111q46 0 151 -31q148 -43 164 -43q11 0 25 14l55 60l147 -84l-59 -95q-46 -71 -81 -103t-83 -32q-53 0 -197 43q-16 5 -48 15.5t-53 16t-32 5.5q-12 0 -34 -18l-62 -58 z" />
<glyph unicode="&#xf2;" horiz-adv-x="1206" d="M82 424q0 68 8 125q36 256 199 402.5t436 146.5q131 0 226.5 -34.5t149.5 -97.5t78.5 -139t24.5 -170q0 -48 -10 -127q-18 -127 -62 -226t-118 -174t-185.5 -115t-255.5 -40q-249 0 -370 117t-121 332zM473 420q0 -187 129 -187q75 0 123 65t72 224q8 61 8 129 q0 183 -125 183q-165 0 -199 -295q-8 -63 -8 -119zM516 1448l221 180l260 -366l-155 -121z" />
<glyph unicode="&#xf3;" horiz-adv-x="1206" d="M82 424q0 68 8 125q36 256 199 402.5t436 146.5q131 0 226.5 -34.5t149.5 -97.5t78.5 -139t24.5 -170q0 -48 -10 -127q-18 -127 -62 -226t-118 -174t-185.5 -115t-255.5 -40q-249 0 -370 117t-121 332zM473 420q0 -187 129 -187q75 0 123 65t72 224q8 61 8 129 q0 183 -125 183q-165 0 -199 -295q-8 -63 -8 -119zM485 1282l334 342l182 -201l-383 -282z" />
<glyph unicode="&#xf4;" horiz-adv-x="1206" d="M82 424q0 68 8 125q36 256 199 402.5t436 146.5q131 0 226.5 -34.5t149.5 -97.5t78.5 -139t24.5 -170q0 -48 -10 -127q-18 -127 -62 -226t-118 -174t-185.5 -115t-255.5 -40q-249 0 -370 117t-121 332zM360 1262l283 272h238l209 -272l-152 -123l-197 180l-249 -180z M473 420q0 -187 129 -187q75 0 123 65t72 224q8 61 8 129q0 183 -125 183q-165 0 -199 -295q-8 -63 -8 -119z" />
<glyph unicode="&#xf5;" horiz-adv-x="1206" d="M82 424q0 68 8 125q36 256 199 402.5t436 146.5q131 0 226.5 -34.5t149.5 -97.5t78.5 -139t24.5 -170q0 -48 -10 -127q-18 -127 -62 -226t-118 -174t-185.5 -115t-255.5 -40q-249 0 -370 117t-121 332zM334 1249l78 115q68 111 157 111q47 0 152 -31q148 -43 164 -43 q10 0 24 14l56 60l147 -84l-59 -95q-46 -71 -81 -103t-83 -32q-53 0 -197 43q-16 5 -48 15.5t-53 16t-32 5.5q-13 0 -35 -18l-61 -58zM473 420q0 -187 129 -187q75 0 123 65t72 224q8 61 8 129q0 183 -125 183q-165 0 -199 -295q-8 -63 -8 -119z" />
<glyph unicode="&#xf6;" horiz-adv-x="1206" d="M82 424q0 68 8 125q36 256 199 402.5t436 146.5q131 0 226.5 -34.5t149.5 -97.5t78.5 -139t24.5 -170q0 -48 -10 -127q-18 -127 -62 -226t-118 -174t-185.5 -115t-255.5 -40q-249 0 -370 117t-121 332zM360 1331q0 82 54 132t137 50q67 0 105 -37t38 -100 q0 -83 -52 -133.5t-136 -50.5q-66 0 -106 38t-40 101zM473 420q0 -187 129 -187q75 0 123 65t72 224q8 61 8 129q0 183 -125 183q-165 0 -199 -295q-8 -63 -8 -119zM795 1331q0 82 53.5 132t136.5 50q67 0 105 -37t38 -100q0 -83 -52 -133.5t-136 -50.5q-66 0 -105.5 38 t-39.5 101z" />
<glyph unicode="&#xf7;" d="M207 516l41 283h805l-41 -283h-805zM397 279q0 82 53.5 136t151.5 54q78 0 118 -39t40 -102q0 -85 -51.5 -135t-151.5 -50q-160 0 -160 136zM496 981q0 82 53 136t151 54q78 0 118 -39t40 -102q0 -85 -51.5 -134.5t-151.5 -49.5q-159 0 -159 135z" />
<glyph unicode="&#xf8;" horiz-adv-x="1206" d="M82 424q0 68 8 125q36 256 199 402.5t436 146.5q47 0 90 -6l74 127h299l-127 -218q143 -113 143 -344q0 -48 -10 -127q-18 -127 -62 -226t-118 -174t-185.5 -115t-255.5 -40q-46 0 -100 7l-84 -148h-301l139 240q-145 118 -145 350zM465 412l248 430q-20 4 -33 4 q-72 0 -129 -70t-78 -237q-8 -63 -8 -123v-4zM575 223q8 -2 27 -2q78 0 127 67.5t76 233.5q8 68 8 117z" />
<glyph unicode="&#xf9;" horiz-adv-x="1267" d="M113 893l24 182h500l-96 -692q-11 -84 45 -84q51 0 176 102l59 437q4 25 0 31.5t-26 9.5l-88 14l24 182h502l-117 -833q-7 -39 19 -43l98 -17l-27 -182h-465l21 147l-8 7q-53 -46 -81.5 -68.5t-77 -52.5t-97 -43t-105.5 -13q-115 0 -177 66.5t-62 196.5q0 40 6 90l71 508 q4 25 0.5 31.5t-24.5 9.5zM502 1448l221 180l260 -366l-156 -121z" />
<glyph unicode="&#xfa;" horiz-adv-x="1267" d="M113 893l24 182h500l-96 -692q-11 -84 45 -84q51 0 176 102l59 437q4 25 0 31.5t-26 9.5l-88 14l24 182h502l-117 -833q-7 -39 19 -43l98 -17l-27 -182h-465l21 147l-8 7q-53 -46 -81.5 -68.5t-77 -52.5t-97 -43t-105.5 -13q-115 0 -177 66.5t-62 196.5q0 40 6 90l71 508 q4 25 0.5 31.5t-24.5 9.5zM500 1282l334 342l182 -201l-383 -282z" />
<glyph unicode="&#xfb;" horiz-adv-x="1267" d="M113 893l24 182h500l-96 -692q-11 -84 45 -84q51 0 176 102l59 437q4 25 0 31.5t-26 9.5l-88 14l24 182h502l-117 -833q-7 -39 19 -43l98 -17l-27 -182h-465l21 147l-8 7q-53 -46 -81.5 -68.5t-77 -52.5t-97 -43t-105.5 -13q-115 0 -177 66.5t-62 196.5q0 40 6 90l71 508 q4 25 0.5 31.5t-24.5 9.5zM346 1262l283 272h237l209 -272l-151 -123l-197 180l-250 -180z" />
<glyph unicode="&#xfc;" horiz-adv-x="1267" d="M113 893l24 182h500l-96 -692q-11 -84 45 -84q51 0 176 102l59 437q4 25 0 31.5t-26 9.5l-88 14l24 182h502l-117 -833q-7 -39 19 -43l98 -17l-27 -182h-465l21 147l-8 7q-53 -46 -81.5 -68.5t-77 -52.5t-97 -43t-105.5 -13q-115 0 -177 66.5t-62 196.5q0 40 6 90l71 508 q4 25 0.5 31.5t-24.5 9.5zM346 1331q0 82 54 132t137 50q67 0 105 -37t38 -100q0 -83 -52 -133.5t-136 -50.5q-66 0 -106 38t-40 101zM780 1331q0 82 54 132t137 50q67 0 105 -37t38 -100q0 -83 -52 -133.5t-136 -50.5q-66 0 -106 38t-40 101z" />
<glyph unicode="&#xfd;" horiz-adv-x="1239" d="M-92 -346l121 207q94 -62 190 -62q59 0 97.5 27.5t74.5 87.5l45 76l-237 850q-6 18 -12.5 23.5t-24.5 10.5l-80 19l29 182h415l27 -28l57 -261l82 -370h21l239 461l-125 16l29 182h414l35 -84l-619 -1163q-78 -149 -180 -217t-273 -68q-107 0 -194.5 36t-130.5 75z M481 1282l334 342l182 -201l-383 -282z" />
<glyph unicode="&#xfe;" horiz-adv-x="1255" d="M35 -426l59 340l193 1362q5 31 -21 43l-94 39l27 188h489l-88 -616l10 -6q93 90 174 132t166 42q301 0 301 -418q0 -352 -133.5 -528.5t-361.5 -176.5q-78 0 -146.5 29t-105.5 64h-15l-40 -269q-3 -28 30 -30l217 -21l-26 -182h-633zM526 313q75 -47 146 -47q62 0 104 56 t58 131t16 161q0 34 -2.5 59t-10 51t-23.5 40t-40 14q-37 0 -83.5 -28t-112.5 -80z" />
<glyph unicode="&#xff;" horiz-adv-x="1239" d="M-92 -346l121 207q94 -62 190 -62q59 0 97.5 27.5t74.5 87.5l45 76l-237 850q-6 18 -12.5 23.5t-24.5 10.5l-80 19l29 182h415l27 -28l57 -261l82 -370h21l239 461l-125 16l29 182h414l35 -84l-619 -1163q-78 -149 -180 -217t-273 -68q-107 0 -194.5 36t-130.5 75z M356 1331q0 82 54 132t137 50q67 0 105 -37t38 -100q0 -83 -52 -133.5t-136 -50.5q-66 0 -106 38t-40 101zM791 1331q0 82 53.5 132t136.5 50q67 0 105 -37t38 -100q0 -83 -52 -133.5t-136 -50.5q-66 0 -105.5 38t-39.5 101z" />
<glyph unicode="&#x152;" horiz-adv-x="2078" d="M119 608q0 192 50.5 355.5t146 285.5t243 191t332.5 69q126 0 215 -26h1024l-64 -459l-270 10l-6 156q0 27 -33 27h-364q66 -140 69 -336h457l-39 -277h-434q-38 -198 -133 -340h358q18 0 25.5 4t11.5 19l55 180h271l-64 -467h-1050q-103 -25 -211 -25q-150 0 -264.5 48 t-185 134t-105.5 199.5t-35 251.5zM516 598q0 -169 59.5 -242t176.5 -73q306 0 342 481q6 76 6 127q0 311 -234 311q-146 0 -235.5 -124.5t-110.5 -381.5q-4 -53 -4 -98z" />
<glyph unicode="&#x153;" horiz-adv-x="1765" d="M82 424q0 68 8 125q36 256 191 402.5t415 146.5q126 0 216.5 -43t136.5 -107q170 150 362 150q175 0 270 -74t95 -213q0 -56 -19 -104t-51 -84t-79.5 -66.5t-98 -51t-114 -38.5t-119 -28.5t-121.5 -20.5q7 -166 169 -166q111 0 299 74l54 -238q-257 -113 -459 -113 q-191 0 -305 154q-143 -154 -385 -154q-230 0 -347.5 117.5t-117.5 331.5zM473 420q0 -187 129 -187q75 0 123 65t72 224q8 61 8 129q0 183 -125 183q-165 0 -199 -295q-8 -63 -8 -119zM1184 633q31 4 65.5 12t80.5 23.5t75 42t29 59.5q0 31 -20.5 47.5t-55.5 16.5 q-60 0 -108 -50.5t-66 -150.5z" />
<glyph unicode="&#x178;" horiz-adv-x="1427" d="M152 1303l26 180h709l-27 -180l-164 -19l146 -414h22l256 414l-153 19l26 180h592l-26 -180l-89 -23q-44 -10 -55 -39l-448 -698l-43 -305q-4 -22 0 -30t26 -9l219 -17l-24 -182h-877l25 182l209 15q20 1 27 9t10 32l43 303l-299 704q-11 27 -45 35zM555 1737 q0 82 53.5 132t136.5 50q66 0 105 -37t39 -100q0 -82 -53 -133.5t-136 -51.5q-67 0 -106 38t-39 102zM989 1737q0 82 54 132t137 50q66 0 104.5 -37t38.5 -100q0 -83 -53 -134t-135 -51q-67 0 -106.5 38.5t-39.5 101.5z" />
<glyph unicode="&#x2c6;" horiz-adv-x="1024" d="M326 1262l282 272h238l209 -272l-152 -123l-196 180l-250 -180z" />
<glyph unicode="&#x2dc;" horiz-adv-x="1024" d="M311 1249l78 115q68 111 158 111q46 0 151 -31q148 -43 164 -43q11 0 25 14l55 60l148 -84l-60 -95q-46 -71 -81 -103t-83 -32q-52 0 -196 43q-16 5 -48 15.5t-53 16t-32 5.5q-13 0 -35 -18l-62 -58z" />
<glyph unicode="&#x2000;" horiz-adv-x="987" />
<glyph unicode="&#x2001;" horiz-adv-x="1974" />
<glyph unicode="&#x2002;" horiz-adv-x="987" />
<glyph unicode="&#x2003;" horiz-adv-x="1974" />
<glyph unicode="&#x2004;" horiz-adv-x="658" />
<glyph unicode="&#x2005;" horiz-adv-x="493" />
<glyph unicode="&#x2006;" horiz-adv-x="329" />
<glyph unicode="&#x2007;" horiz-adv-x="329" />
<glyph unicode="&#x2008;" horiz-adv-x="246" />
<glyph unicode="&#x2009;" horiz-adv-x="394" />
<glyph unicode="&#x200a;" horiz-adv-x="109" />
<glyph unicode="&#x2010;" horiz-adv-x="636" d="M76 440l43 308h555l-43 -308h-555z" />
<glyph unicode="&#x2011;" horiz-adv-x="636" d="M76 440l43 308h555l-43 -308h-555z" />
<glyph unicode="&#x2012;" horiz-adv-x="636" d="M76 440l43 308h555l-43 -308h-555z" />
<glyph unicode="&#x2013;" horiz-adv-x="1024" d="M27 440l36 267h1022l-36 -267h-1022z" />
<glyph unicode="&#x2014;" horiz-adv-x="2048" d="M27 440l36 267h2048l-36 -267h-2048z" />
<glyph unicode="&#x2018;" horiz-adv-x="491" d="M233 1233q0 27 10.5 57.5t22 52t35.5 60.5l123 203l145 -47l-67 -203q-6 -22 10 -27l78 -29l-72 -219q-63 0 -109.5 6t-89 21.5t-64.5 46.5t-22 78z" />
<glyph unicode="&#x2019;" horiz-adv-x="481" d="M233 1384l72 220q52 0 89 -2.5t76.5 -11t64 -24t40 -42.5t15.5 -64q0 -64 -68 -176l-123 -205l-145 47l68 203q6 21 -11 27z" />
<glyph unicode="&#x201a;" horiz-adv-x="493" d="M55 12l72 219q66 0 110 -4.5t88 -18.5t65.5 -44t21.5 -76q0 -64 -68 -176l-123 -205l-145 47l67 203q6 22 -10 27z" />
<glyph unicode="&#x201c;" horiz-adv-x="886" d="M233 1233q0 27 10.5 57.5t22 52t35.5 60.5l123 203l145 -47l-67 -203q-6 -22 10 -27l78 -29l-72 -219q-63 0 -109.5 6t-89 21.5t-64.5 46.5t-22 78zM629 1233q0 39 16.5 76.5t50.5 93.5l123 203l146 -47l-68 -203q-6 -22 10 -27l78 -29l-72 -219q-63 0 -109.5 6 t-88.5 21.5t-64 46.5t-22 78z" />
<glyph unicode="&#x201d;" horiz-adv-x="876" d="M233 1384l72 220q52 0 89 -2.5t76.5 -11t64 -24t40 -42.5t15.5 -64q0 -64 -68 -176l-123 -205l-145 47l68 203q6 21 -11 27zM629 1384l71 220q52 0 89 -2.5t76.5 -11t64 -24t40 -42.5t15.5 -64q0 -66 -67 -176l-123 -205l-146 47l68 203q6 22 -10 27z" />
<glyph unicode="&#x201e;" horiz-adv-x="888" d="M55 12l72 219q66 0 110 -4.5t88 -18.5t65.5 -44t21.5 -76q0 -64 -68 -176l-123 -205l-145 47l67 203q6 22 -10 27zM451 12l71 219q66 0 110 -4.5t88 -18.5t65.5 -44t21.5 -76q0 -64 -68 -176l-123 -205l-145 47l68 203q6 21 -11 27z" />
<glyph unicode="&#x2022;" horiz-adv-x="808" d="M127 571q0 156 83.5 235t242.5 79q161 0 244 -79t83 -235t-83 -234.5t-244 -78.5q-160 0 -243 78.5t-83 234.5z" />
<glyph unicode="&#x2026;" horiz-adv-x="1558" d="M90 123q0 101 56.5 155t172.5 54q177 0 177 -150q0 -99 -57 -153t-171 -54q-178 0 -178 148zM567 123q0 101 57 155t173 54q176 0 176 -150q0 -99 -57 -153t-171 -54q-178 0 -178 148zM1044 123q0 101 57 155t173 54q176 0 176 -150q0 -99 -56.5 -153t-170.5 -54 q-179 0 -179 148z" />
<glyph unicode="&#x202f;" horiz-adv-x="394" />
<glyph unicode="&#x2039;" horiz-adv-x="569" d="M84 524l225 312h299l-209 -287q-15 -20 -8 -39l117 -299h-295z" />
<glyph unicode="&#x203a;" horiz-adv-x="569" d="M51 211l203 299q13 21 4 39l-131 287h299l139 -312l-219 -313h-295z" />
<glyph unicode="&#x205f;" horiz-adv-x="493" />
<glyph unicode="&#x20ac;" horiz-adv-x="1187" d="M59 510l91 293h83q33 141 99 249t152.5 172t184.5 96t205 32q117 0 230.5 -30.5t165.5 -70.5l-51 -379l-258 11l-9 159q0 28 -16 35q-37 13 -84 13q-69 0 -129 -68.5t-90 -218.5h276l-88 -293h-213q0 -138 34.5 -200t111.5 -62q38 0 69 10q18 7 29 35l53 164l256 10 l-53 -391q-60 -39 -190.5 -70t-249.5 -31q-230 0 -345.5 136.5t-117.5 398.5h-146z" />
<glyph unicode="&#x2122;" horiz-adv-x="1755" d="M236 1260v223h661v-223h-104l-9 100h-129v-531l109 -10v-106h-387v106l98 10v531h-125l-10 -100h-104zM958 713v104l70 10v537l-70 6v113h240l205 -428l211 428h229v-113l-71 -6v-537l75 -10v-104h-311v104l76 10v344l-144 -292h-139l-141 295v-347l84 -10v-104h-314z " />
<glyph unicode="&#xe000;" horiz-adv-x="1075" d="M0 0v1075h1075v-1075h-1075z" />
</font>
</defs>
</svg>
